<svg width="320" height="82" viewBox="0 0 320 82" fill="none" xmlns="http://www.w3.org/2000/svg">
<path d="M70.5468 67.6C70.5228 65.932 69.3108 65.416 68.0748 65.056L67.0428 64.756C66.2148 64.516 65.7468 64.216 65.7468 63.52C65.7468 62.596 66.7428 62.248 67.4868 62.248C68.1468 62.248 68.7108 62.488 69.1908 62.884C69.3468 63.016 69.5268 63.1 69.7068 63.1C70.0068 63.1 70.2108 62.908 70.2108 62.596C70.2108 62.452 70.1508 62.32 70.0308 62.188C69.5508 61.672 68.7348 61.204 67.4988 61.204C65.7108 61.204 64.5948 62.236 64.5948 63.532C64.5948 64.864 65.3268 65.416 66.7188 65.824L67.8228 66.148C68.7708 66.424 69.3708 66.808 69.3708 67.648C69.3708 68.572 68.6148 69.064 67.6068 69.064C66.8148 69.064 66.1068 68.812 65.5428 68.104C65.3988 67.924 65.2308 67.816 65.0148 67.816C64.7028 67.816 64.4628 68.056 64.4628 68.356C64.4628 68.5 64.5107 68.644 64.6308 68.812C65.2908 69.676 66.4068 70.132 67.5828 70.132C69.3588 70.132 70.5468 69.1 70.5468 67.6ZM76.4284 69.028C76.4284 68.752 76.2724 68.536 75.9964 68.536C75.8524 68.536 75.7084 68.62 75.5524 68.752C75.3604 68.92 75.0604 69.04 74.8444 69.04C74.3404 69.04 74.1244 68.716 74.1244 67.888V64.576H75.5404C75.8164 64.576 76.0444 64.348 76.0444 64.06C76.0444 63.784 75.8164 63.556 75.5284 63.556H74.1244V61.756C74.1244 61.444 73.8724 61.192 73.5604 61.192C73.2484 61.192 72.9964 61.444 72.9964 61.756V63.556H72.0604C71.7844 63.556 71.5564 63.784 71.5564 64.072C71.5564 64.348 71.7844 64.576 72.0724 64.576H72.9964V67.96C72.9964 69.304 73.5964 70.06 74.8444 70.06C75.3724 70.06 75.9364 69.82 76.2484 69.448C76.3564 69.328 76.4284 69.184 76.4284 69.028ZM82.688 64.6C82.688 64.456 82.64 64.324 82.532 64.204C82.124 63.748 81.56 63.496 80.876 63.496C80.144 63.496 79.544 63.784 79.16 64.288V64.12C79.16 63.808 78.908 63.556 78.596 63.556C78.284 63.556 78.032 63.808 78.032 64.12V69.436C78.032 69.748 78.284 70 78.596 70C78.908 70 79.16 69.748 79.16 69.436V66.604C79.16 65.848 79.244 65.416 79.484 65.092C79.736 64.756 80.096 64.504 80.684 64.504C81.152 64.504 81.404 64.612 81.776 64.912C81.908 65.02 82.028 65.104 82.208 65.104C82.508 65.104 82.688 64.852 82.688 64.6ZM88.0395 69.208V69.436C88.0395 69.748 88.2915 70 88.6035 70C88.9155 70 89.1675 69.748 89.1675 69.436V64.12C89.1675 63.808 88.9155 63.556 88.6035 63.556C88.2915 63.556 88.0395 63.808 88.0395 64.12V64.3C87.6315 63.748 87.0075 63.496 86.3835 63.496C84.8595 63.496 83.6955 64.816 83.6955 66.784C83.6955 68.764 84.8715 70.06 86.3955 70.06C87.0915 70.06 87.6795 69.748 88.0395 69.208ZM86.4315 69.1C85.4955 69.1 84.8115 68.236 84.8115 66.784C84.8115 65.344 85.4955 64.456 86.4315 64.456C87.3435 64.456 88.0515 65.344 88.0515 66.784C88.0515 68.236 87.3435 69.1 86.4315 69.1ZM92.6952 64.12C92.6952 63.808 92.4432 63.556 92.1312 63.556C91.8192 63.556 91.5672 63.808 91.5672 64.12V69.436C91.5672 69.748 91.8192 70 92.1312 70C92.4432 70 92.6952 69.748 92.6952 69.436V64.12ZM92.9952 61.552C92.9952 61.084 92.5992 60.688 92.1312 60.688C91.6632 60.688 91.2672 61.084 91.2672 61.552C91.2672 62.02 91.6632 62.416 92.1312 62.416C92.5992 62.416 92.9952 62.02 92.9952 61.552ZM99.0785 69.688C99.0785 70.252 98.9705 70.756 98.6825 71.044C98.3825 71.344 97.9385 71.464 97.4225 71.464C96.8825 71.464 96.4985 71.26 96.0665 70.948C95.9705 70.876 95.8385 70.828 95.7185 70.828C95.4185 70.828 95.2025 71.044 95.2025 71.344C95.2025 71.608 95.3705 71.752 95.5025 71.848C95.9945 72.22 96.6905 72.448 97.4225 72.448C98.3465 72.448 98.8985 72.244 99.3545 71.848C99.9545 71.332 100.207 70.66 100.207 69.688V64.12C100.207 63.808 99.9545 63.556 99.6425 63.556C99.3305 63.556 99.0785 63.808 99.0785 64.12V64.312C98.6705 63.748 98.0465 63.496 97.4225 63.496C95.8985 63.496 94.7345 64.816 94.7345 66.784C94.7345 68.764 95.9105 70.06 97.4345 70.06C98.1065 70.06 98.6945 69.772 99.0785 69.268V69.688ZM97.4705 69.1C96.5345 69.1 95.8505 68.236 95.8505 66.784C95.8505 65.344 96.5345 64.456 97.4705 64.456C98.3825 64.456 99.0905 65.344 99.0905 66.784C99.0905 68.236 98.3825 69.1 97.4705 69.1ZM103.758 61.888C103.758 61.576 103.506 61.324 103.194 61.324C102.882 61.324 102.63 61.576 102.63 61.888V69.436C102.63 69.748 102.882 70 103.194 70C103.506 70 103.758 69.748 103.758 69.436V66.16C103.758 65.86 103.818 65.512 103.986 65.248C104.274 64.768 104.85 64.516 105.366 64.516C105.942 64.516 106.326 64.792 106.47 65.2C106.542 65.404 106.566 65.764 106.566 66.052V69.436C106.566 69.748 106.818 70 107.13 70C107.442 70 107.694 69.748 107.694 69.436V65.992C107.694 65.428 107.646 64.876 107.382 64.432C106.986 63.76 106.254 63.496 105.582 63.496C104.802 63.496 104.142 63.82 103.758 64.264V61.888ZM114.069 69.028C114.069 68.752 113.913 68.536 113.637 68.536C113.493 68.536 113.349 68.62 113.193 68.752C113.001 68.92 112.701 69.04 112.485 69.04C111.981 69.04 111.765 68.716 111.765 67.888V64.576H113.181C113.457 64.576 113.685 64.348 113.685 64.06C113.685 63.784 113.457 63.556 113.169 63.556H111.765V61.756C111.765 61.444 111.513 61.192 111.201 61.192C110.889 61.192 110.637 61.444 110.637 61.756V63.556H109.701C109.425 63.556 109.197 63.784 109.197 64.072C109.197 64.348 109.425 64.576 109.713 64.576H110.637V67.96C110.637 69.304 111.237 70.06 112.485 70.06C113.013 70.06 113.577 69.82 113.889 69.448C113.997 69.328 114.069 69.184 114.069 69.028ZM123.645 62.116C123.645 61.888 123.585 61.792 123.441 61.6C123.165 61.252 122.661 60.988 122.061 60.988C120.957 60.988 120.177 61.9 120.177 63.124V63.556H119.205C118.929 63.556 118.701 63.784 118.701 64.072C118.701 64.348 118.929 64.576 119.217 64.576H120.177V69.436C120.177 69.748 120.429 70 120.741 70C121.053 70 121.305 69.748 121.305 69.436V64.576H122.625C122.901 64.576 123.129 64.348 123.129 64.06C123.129 63.784 122.901 63.556 122.613 63.556H121.305V63.148C121.305 62.704 121.377 62.464 121.521 62.272C121.653 62.092 121.833 62.008 122.061 62.008C122.325 62.008 122.481 62.104 122.697 62.344C122.805 62.464 122.949 62.584 123.201 62.584C123.441 62.584 123.645 62.356 123.645 62.116ZM129.376 64.6C129.376 64.456 129.328 64.324 129.22 64.204C128.812 63.748 128.248 63.496 127.564 63.496C126.832 63.496 126.232 63.784 125.848 64.288V64.12C125.848 63.808 125.596 63.556 125.284 63.556C124.972 63.556 124.72 63.808 124.72 64.12V69.436C124.72 69.748 124.972 70 125.284 70C125.596 70 125.848 69.748 125.848 69.436V66.604C125.848 65.848 125.932 65.416 126.172 65.092C126.424 64.756 126.784 64.504 127.372 64.504C127.84 64.504 128.092 64.612 128.464 64.912C128.596 65.02 128.716 65.104 128.896 65.104C129.196 65.104 129.376 64.852 129.376 64.6ZM133.107 63.496C131.571 63.496 130.371 64.792 130.371 66.784C130.371 68.776 131.559 70.06 133.107 70.06C134.655 70.06 135.843 68.776 135.843 66.784C135.843 64.792 134.643 63.496 133.107 63.496ZM133.107 69.1C132.171 69.1 131.487 68.236 131.487 66.784C131.487 65.344 132.171 64.456 133.107 64.456C134.043 64.456 134.727 65.344 134.727 66.784C134.727 68.236 134.043 69.1 133.107 69.1ZM145.668 66.016C145.668 65.38 145.596 64.876 145.428 64.504C145.164 63.928 144.624 63.496 143.808 63.496C142.968 63.496 142.44 63.892 142.104 64.54C141.888 63.952 141.312 63.496 140.496 63.496C139.824 63.496 139.308 63.784 139.008 64.252V64.12C139.008 63.808 138.756 63.556 138.444 63.556C138.132 63.556 137.88 63.808 137.88 64.12V69.436C137.88 69.748 138.132 70 138.444 70C138.756 70 139.008 69.748 139.008 69.436V65.956C139.008 65.68 139.056 65.344 139.176 65.14C139.392 64.756 139.812 64.516 140.28 64.516C140.724 64.516 141.012 64.828 141.108 65.14C141.18 65.38 141.204 65.704 141.204 66.16V69.436C141.204 69.748 141.456 70 141.768 70C142.08 70 142.332 69.748 142.332 69.436V66.064C142.332 65.764 142.392 65.392 142.5 65.188C142.716 64.792 143.1 64.516 143.604 64.516C144.06 64.516 144.348 64.828 144.456 65.188C144.528 65.428 144.54 65.98 144.54 66.136V69.436C144.54 69.748 144.792 70 145.104 70C145.416 70 145.668 69.748 145.668 69.436V66.016ZM153.205 70.78C153.049 71.2 152.857 71.428 152.509 71.428C152.269 71.428 152.065 71.32 151.897 71.176C151.789 71.092 151.669 71.044 151.537 71.044C151.249 71.044 151.033 71.272 151.033 71.548C151.033 71.728 151.129 71.872 151.237 71.98C151.573 72.292 151.993 72.448 152.521 72.448C153.217 72.448 153.793 72.052 154.069 71.356L156.877 64.372C156.913 64.288 156.937 64.204 156.937 64.12C156.937 63.808 156.685 63.556 156.373 63.556C156.169 63.556 155.953 63.652 155.869 63.868L154.297 67.936C154.237 68.092 154.117 68.464 154.081 68.596H154.057C154.021 68.464 153.901 68.092 153.841 67.936L152.281 63.892C152.221 63.736 152.041 63.556 151.765 63.556C151.453 63.556 151.201 63.808 151.201 64.12C151.201 64.228 151.237 64.324 151.261 64.384L153.409 69.688C153.445 69.772 153.493 69.808 153.565 69.832L153.205 70.78ZM160.939 63.496C159.403 63.496 158.203 64.792 158.203 66.784C158.203 68.776 159.391 70.06 160.939 70.06C162.487 70.06 163.675 68.776 163.675 66.784C163.675 64.792 162.475 63.496 160.939 63.496ZM160.939 69.1C160.003 69.1 159.319 68.236 159.319 66.784C159.319 65.344 160.003 64.456 160.939 64.456C161.875 64.456 162.559 65.344 162.559 66.784C162.559 68.236 161.875 69.1 160.939 69.1ZM169.588 69.436C169.588 69.748 169.84 70 170.152 70C170.464 70 170.716 69.748 170.716 69.436V64.12C170.716 63.808 170.464 63.556 170.152 63.556C169.84 63.556 169.588 63.808 169.588 64.12V67.396C169.588 67.696 169.528 68.044 169.36 68.308C169.072 68.788 168.496 69.04 167.98 69.04C167.404 69.04 167.02 68.764 166.876 68.356C166.804 68.152 166.78 67.792 166.78 67.504V64.12C166.78 63.808 166.528 63.556 166.216 63.556C165.904 63.556 165.652 63.808 165.652 64.12V67.564C165.652 68.128 165.7 68.68 165.964 69.124C166.36 69.796 167.092 70.06 167.764 70.06C168.544 70.06 169.204 69.736 169.588 69.292V69.436ZM177.774 64.6C177.774 64.456 177.726 64.324 177.618 64.204C177.21 63.748 176.646 63.496 175.962 63.496C175.23 63.496 174.63 63.784 174.246 64.288V64.12C174.246 63.808 173.994 63.556 173.682 63.556C173.37 63.556 173.118 63.808 173.118 64.12V69.436C173.118 69.748 173.37 70 173.682 70C173.994 70 174.246 69.748 174.246 69.436V66.604C174.246 65.848 174.33 65.416 174.57 65.092C174.822 64.756 175.182 64.504 175.77 64.504C176.238 64.504 176.49 64.612 176.862 64.912C176.994 65.02 177.114 65.104 177.294 65.104C177.594 65.104 177.774 64.852 177.774 64.6ZM185.828 63.496C185.156 63.496 184.592 63.808 184.172 64.312V61.888C184.172 61.576 183.92 61.324 183.608 61.324C183.296 61.324 183.044 61.576 183.044 61.888V69.436C183.044 69.748 183.296 70 183.608 70C183.92 70 184.172 69.748 184.172 69.436V69.292C184.544 69.724 185.084 70.06 185.9 70.06C187.4 70.06 188.516 68.728 188.516 66.784C188.516 64.804 187.34 63.496 185.828 63.496ZM185.78 69.1C184.868 69.1 184.16 68.236 184.16 66.784C184.16 65.344 184.868 64.456 185.78 64.456C186.716 64.456 187.4 65.344 187.4 66.784C187.4 68.236 186.716 69.1 185.78 69.1ZM194.539 69.208V69.436C194.539 69.748 194.791 70 195.103 70C195.415 70 195.667 69.748 195.667 69.436V64.12C195.667 63.808 195.415 63.556 195.103 63.556C194.791 63.556 194.539 63.808 194.539 64.12V64.3C194.131 63.748 193.507 63.496 192.883 63.496C191.359 63.496 190.195 64.816 190.195 66.784C190.195 68.764 191.371 70.06 192.895 70.06C193.591 70.06 194.179 69.748 194.539 69.208ZM192.931 69.1C191.995 69.1 191.311 68.236 191.311 66.784C191.311 65.344 191.995 64.456 192.931 64.456C193.843 64.456 194.551 65.344 194.551 66.784C194.551 68.236 193.843 69.1 192.931 69.1ZM199.195 64.12C199.195 63.808 198.943 63.556 198.631 63.556C198.319 63.556 198.067 63.808 198.067 64.12V69.436C198.067 69.748 198.319 70 198.631 70C198.943 70 199.195 69.748 199.195 69.436V66.16C199.195 65.86 199.255 65.512 199.423 65.248C199.711 64.768 200.287 64.516 200.803 64.516C201.379 64.516 201.763 64.792 201.907 65.2C201.979 65.404 202.003 65.764 202.003 66.052V69.436C202.003 69.748 202.255 70 202.567 70C202.879 70 203.131 69.748 203.131 69.436V65.992C203.131 65.428 203.083 64.876 202.819 64.432C202.423 63.76 201.691 63.496 201.019 63.496C200.239 63.496 199.579 63.82 199.195 64.264V64.12ZM210.129 64.576C210.261 64.456 210.357 64.288 210.357 64.108C210.357 63.796 210.093 63.556 209.805 63.556C209.649 63.556 209.505 63.628 209.397 63.736L206.613 66.52V61.888C206.613 61.576 206.361 61.324 206.049 61.324C205.737 61.324 205.485 61.576 205.485 61.888V69.436C205.485 69.748 205.737 70 206.049 70C206.361 70 206.613 69.748 206.613 69.436V67.948L207.453 67.144L209.541 69.808C209.673 69.976 209.841 70.024 209.973 70.024C210.273 70.024 210.525 69.772 210.525 69.472C210.525 69.316 210.453 69.184 210.357 69.064L208.209 66.424L210.129 64.576ZM213.516 64.12C213.516 63.808 213.264 63.556 212.951 63.556C212.64 63.556 212.388 63.808 212.388 64.12V69.436C212.388 69.748 212.64 70 212.951 70C213.264 70 213.516 69.748 213.516 69.436V64.12ZM213.816 61.552C213.816 61.084 213.42 60.688 212.951 60.688C212.484 60.688 212.088 61.084 212.088 61.552C212.088 62.02 212.484 62.416 212.951 62.416C213.42 62.416 213.816 62.02 213.816 61.552ZM217.043 64.12C217.043 63.808 216.791 63.556 216.479 63.556C216.167 63.556 215.915 63.808 215.915 64.12V69.436C215.915 69.748 216.167 70 216.479 70C216.791 70 217.043 69.748 217.043 69.436V66.16C217.043 65.86 217.103 65.512 217.271 65.248C217.559 64.768 218.135 64.516 218.651 64.516C219.227 64.516 219.611 64.792 219.755 65.2C219.827 65.404 219.851 65.764 219.851 66.052V69.436C219.851 69.748 220.103 70 220.415 70C220.727 70 220.979 69.748 220.979 69.436V65.992C220.979 65.428 220.931 64.876 220.667 64.432C220.271 63.76 219.539 63.496 218.867 63.496C218.087 63.496 217.427 63.82 217.043 64.264V64.12ZM227.305 69.688C227.305 70.252 227.197 70.756 226.909 71.044C226.609 71.344 226.165 71.464 225.649 71.464C225.109 71.464 224.725 71.26 224.293 70.948C224.197 70.876 224.065 70.828 223.945 70.828C223.645 70.828 223.429 71.044 223.429 71.344C223.429 71.608 223.597 71.752 223.729 71.848C224.221 72.22 224.917 72.448 225.649 72.448C226.573 72.448 227.125 72.244 227.581 71.848C228.181 71.332 228.433 70.66 228.433 69.688V64.12C228.433 63.808 228.181 63.556 227.869 63.556C227.557 63.556 227.305 63.808 227.305 64.12V64.312C226.897 63.748 226.273 63.496 225.649 63.496C224.125 63.496 222.961 64.816 222.961 66.784C222.961 68.764 224.137 70.06 225.661 70.06C226.333 70.06 226.921 69.772 227.305 69.268V69.688ZM225.697 69.1C224.761 69.1 224.077 68.236 224.077 66.784C224.077 65.344 224.761 64.456 225.697 64.456C226.609 64.456 227.317 65.344 227.317 66.784C227.317 68.236 226.609 69.1 225.697 69.1ZM238.907 69.208V69.436C238.907 69.748 239.159 70 239.471 70C239.783 70 240.035 69.748 240.035 69.436V64.12C240.035 63.808 239.783 63.556 239.471 63.556C239.159 63.556 238.907 63.808 238.907 64.12V64.3C238.499 63.748 237.875 63.496 237.251 63.496C235.727 63.496 234.563 64.816 234.563 66.784C234.563 68.764 235.739 70.06 237.263 70.06C237.959 70.06 238.547 69.748 238.907 69.208ZM237.299 69.1C236.363 69.1 235.679 68.236 235.679 66.784C235.679 65.344 236.363 64.456 237.299 64.456C238.211 64.456 238.919 65.344 238.919 66.784C238.919 68.236 238.211 69.1 237.299 69.1ZM245.23 63.496C244.558 63.496 243.994 63.808 243.574 64.312V64.12C243.574 63.808 243.322 63.556 243.01 63.556C242.698 63.556 242.446 63.808 242.446 64.12V71.68C242.446 71.992 242.698 72.244 243.01 72.244C243.322 72.244 243.574 71.992 243.574 71.68V69.292C243.946 69.724 244.486 70.06 245.302 70.06C246.802 70.06 247.918 68.728 247.918 66.784C247.918 64.804 246.742 63.496 245.23 63.496ZM245.182 69.1C244.27 69.1 243.562 68.236 243.562 66.784C243.562 65.344 244.27 64.456 245.182 64.456C246.118 64.456 246.802 65.344 246.802 66.784C246.802 68.236 246.118 69.1 245.182 69.1ZM252.754 63.496C252.082 63.496 251.518 63.808 251.098 64.312V64.12C251.098 63.808 250.846 63.556 250.534 63.556C250.222 63.556 249.97 63.808 249.97 64.12V71.68C249.97 71.992 250.222 72.244 250.534 72.244C250.846 72.244 251.098 71.992 251.098 71.68V69.292C251.47 69.724 252.01 70.06 252.826 70.06C254.326 70.06 255.442 68.728 255.442 66.784C255.442 64.804 254.266 63.496 252.754 63.496ZM252.706 69.1C251.794 69.1 251.086 68.236 251.086 66.784C251.086 65.344 251.794 64.456 252.706 64.456C253.642 64.456 254.326 65.344 254.326 66.784C254.326 68.236 253.642 69.1 252.706 69.1Z" fill="#A0A0A0"/>
<rect width="320" height="50" rx="6" fill="#1D1D1D"/>
<path d="M116.01 22.425C116.01 21.555 115.695 20.82 115.2 20.28C114.525 19.56 113.505 19.155 112.425 19.155H109.485C109.08 19.155 108.75 19.5 108.75 19.905V29.25C108.75 29.67 109.08 30 109.5 30C109.92 30 110.25 29.67 110.25 29.25V25.665H112.425C113.67 25.665 114.615 25.245 115.215 24.585C115.74 24 116.01 23.265 116.01 22.425ZM114.57 22.395C114.57 22.89 114.465 23.37 114.135 23.73C113.82 24.075 113.28 24.315 112.38 24.315H110.25V20.505H112.35C113.19 20.505 113.76 20.805 114.135 21.225C114.42 21.57 114.57 21.975 114.57 22.395ZM122.999 29.01V29.295C122.999 29.685 123.314 30 123.704 30C124.094 30 124.409 29.685 124.409 29.295V22.65C124.409 22.26 124.094 21.945 123.704 21.945C123.314 21.945 122.999 22.26 122.999 22.65V22.875C122.489 22.185 121.709 21.87 120.929 21.87C119.024 21.87 117.569 23.52 117.569 25.98C117.569 28.455 119.039 30.075 120.944 30.075C121.814 30.075 122.549 29.685 122.999 29.01ZM120.989 28.875C119.819 28.875 118.964 27.795 118.964 25.98C118.964 24.18 119.819 23.07 120.989 23.07C122.129 23.07 123.014 24.18 123.014 25.98C123.014 27.795 122.129 28.875 120.989 28.875ZM129.134 30.975C128.939 31.5 128.699 31.785 128.264 31.785C127.964 31.785 127.709 31.65 127.499 31.47C127.364 31.365 127.214 31.305 127.049 31.305C126.689 31.305 126.419 31.59 126.419 31.935C126.419 32.16 126.539 32.34 126.674 32.475C127.094 32.865 127.619 33.06 128.279 33.06C129.149 33.06 129.869 32.565 130.214 31.695L133.724 22.965C133.769 22.86 133.799 22.755 133.799 22.65C133.799 22.26 133.484 21.945 133.094 21.945C132.839 21.945 132.569 22.065 132.464 22.335L130.499 27.42C130.424 27.615 130.274 28.08 130.229 28.245H130.199C130.154 28.08 130.004 27.615 129.929 27.42L127.979 22.365C127.904 22.17 127.679 21.945 127.334 21.945C126.944 21.945 126.629 22.26 126.629 22.65C126.629 22.785 126.674 22.905 126.704 22.98L129.389 29.61C129.434 29.715 129.494 29.76 129.584 29.79L129.134 30.975ZM144.234 21.87C143.394 21.87 142.689 22.26 142.164 22.89V19.86C142.164 19.47 141.849 19.155 141.459 19.155C141.069 19.155 140.754 19.47 140.754 19.86V29.295C140.754 29.685 141.069 30 141.459 30C141.849 30 142.164 29.685 142.164 29.295V29.115C142.629 29.655 143.304 30.075 144.324 30.075C146.199 30.075 147.594 28.41 147.594 25.98C147.594 23.505 146.124 21.87 144.234 21.87ZM144.174 28.875C143.034 28.875 142.149 27.795 142.149 25.98C142.149 24.18 143.034 23.07 144.174 23.07C145.344 23.07 146.199 24.18 146.199 25.98C146.199 27.795 145.344 28.875 144.174 28.875ZM151.722 30.975C151.527 31.5 151.287 31.785 150.852 31.785C150.552 31.785 150.297 31.65 150.087 31.47C149.952 31.365 149.802 31.305 149.637 31.305C149.277 31.305 149.007 31.59 149.007 31.935C149.007 32.16 149.127 32.34 149.262 32.475C149.682 32.865 150.207 33.06 150.867 33.06C151.737 33.06 152.457 32.565 152.802 31.695L156.312 22.965C156.357 22.86 156.387 22.755 156.387 22.65C156.387 22.26 156.072 21.945 155.682 21.945C155.427 21.945 155.157 22.065 155.052 22.335L153.087 27.42C153.012 27.615 152.862 28.08 152.817 28.245H152.787C152.742 28.08 152.592 27.615 152.517 27.42L150.567 22.365C150.492 22.17 150.267 21.945 149.922 21.945C149.532 21.945 149.217 22.26 149.217 22.65C149.217 22.785 149.262 22.905 149.292 22.98L151.977 29.61C152.022 29.715 152.082 29.76 152.172 29.79L151.722 30.975ZM171.307 26.745C171.307 25.47 170.587 24.51 169.627 24.105C170.257 23.655 170.797 22.995 170.797 22.005C170.797 21.135 170.467 20.43 169.927 19.935C169.372 19.41 168.592 19.155 167.422 19.155H164.227C163.807 19.155 163.477 19.485 163.477 19.905V29.25C163.477 29.655 163.807 30 164.212 30H167.572C169.972 30 171.307 28.575 171.307 26.745ZM169.312 22.035C169.312 22.905 168.877 23.55 167.572 23.55H164.977V20.505H167.377C168.682 20.505 169.312 21.09 169.312 22.035ZM169.762 26.76C169.762 27.885 168.967 28.65 167.602 28.65H164.977V24.87H167.662C169.087 24.87 169.762 25.59 169.762 26.76ZM178.824 29.01V29.295C178.824 29.685 179.139 30 179.529 30C179.919 30 180.234 29.685 180.234 29.295V22.65C180.234 22.26 179.919 21.945 179.529 21.945C179.139 21.945 178.824 22.26 178.824 22.65V22.875C178.314 22.185 177.534 21.87 176.754 21.87C174.849 21.87 173.394 23.52 173.394 25.98C173.394 28.455 174.864 30.075 176.769 30.075C177.639 30.075 178.374 29.685 178.824 29.01ZM176.814 28.875C175.644 28.875 174.789 27.795 174.789 25.98C174.789 24.18 175.644 23.07 176.814 23.07C177.954 23.07 178.839 24.18 178.839 25.98C178.839 27.795 177.954 28.875 176.814 28.875ZM184.644 22.65C184.644 22.26 184.329 21.945 183.939 21.945C183.549 21.945 183.234 22.26 183.234 22.65V29.295C183.234 29.685 183.549 30 183.939 30C184.329 30 184.644 29.685 184.644 29.295V25.2C184.644 24.825 184.719 24.39 184.929 24.06C185.289 23.46 186.009 23.145 186.654 23.145C187.374 23.145 187.854 23.49 188.034 24C188.124 24.255 188.154 24.705 188.154 25.065V29.295C188.154 29.685 188.469 30 188.859 30C189.249 30 189.564 29.685 189.564 29.295V24.99C189.564 24.285 189.504 23.595 189.174 23.04C188.679 22.2 187.764 21.87 186.924 21.87C185.949 21.87 185.124 22.275 184.644 22.83V22.65ZM198.312 23.22C198.477 23.07 198.597 22.86 198.597 22.635C198.597 22.245 198.267 21.945 197.907 21.945C197.712 21.945 197.532 22.035 197.397 22.17L193.917 25.65V19.86C193.917 19.47 193.602 19.155 193.212 19.155C192.822 19.155 192.507 19.47 192.507 19.86V29.295C192.507 29.685 192.822 30 193.212 30C193.602 30 193.917 29.685 193.917 29.295V27.435L194.967 26.43L197.577 29.76C197.742 29.97 197.952 30.03 198.117 30.03C198.492 30.03 198.807 29.715 198.807 29.34C198.807 29.145 198.717 28.98 198.597 28.83L195.912 25.53L198.312 23.22ZM211.111 20.94C211.111 19.96 210.311 19.16 209.311 19.16C208.331 19.16 207.531 19.96 207.531 20.94C207.531 21.94 208.331 22.74 209.311 22.74C210.311 22.74 211.111 21.94 211.111 20.94ZM211.111 28.32C211.111 27.32 210.311 26.52 209.311 26.52C208.331 26.52 207.531 27.32 207.531 28.32C207.531 29.3 208.331 30.1 209.311 30.1C210.311 30.1 211.111 29.3 211.111 28.32Z" fill="#FAFAFA"/>
</svg>
