<svg width="320" height="50" viewBox="0 0 320 50" fill="none" xmlns="http://www.w3.org/2000/svg">
<rect width="320" height="50" rx="6" fill="#141414"/>
<path d="M50.5113 26.745C50.5113 25.47 49.7913 24.51 48.8313 24.105C49.4613 23.655 50.0013 22.995 50.0013 22.005C50.0013 21.135 49.6713 20.43 49.1313 19.935C48.5763 19.41 47.7963 19.155 46.6263 19.155H43.4313C43.0112 19.155 42.6813 19.485 42.6813 19.905V29.25C42.6813 29.655 43.0112 30 43.4163 30H46.7763C49.1763 30 50.5113 28.575 50.5113 26.745ZM48.5163 22.035C48.5163 22.905 48.0813 23.55 46.7763 23.55H44.1813V20.505H46.5813C47.8863 20.505 48.5163 21.09 48.5163 22.035ZM48.9663 26.76C48.9663 27.885 48.1713 28.65 46.8063 28.65H44.1813V24.87H46.8663C48.2913 24.87 48.9663 25.59 48.9663 26.76ZM58.0288 29.01V29.295C58.0288 29.685 58.3438 30 58.7338 30C59.1238 30 59.4388 29.685 59.4388 29.295V22.65C59.4388 22.26 59.1238 21.945 58.7338 21.945C58.3438 21.945 58.0288 22.26 58.0288 22.65V22.875C57.5188 22.185 56.7388 21.87 55.9588 21.87C54.0538 21.87 52.5988 23.52 52.5988 25.98C52.5988 28.455 54.0688 30.075 55.9738 30.075C56.8438 30.075 57.5788 29.685 58.0288 29.01ZM56.0188 28.875C54.8488 28.875 53.9938 27.795 53.9938 25.98C53.9938 24.18 54.8488 23.07 56.0188 23.07C57.1588 23.07 58.0438 24.18 58.0438 25.98C58.0438 27.795 57.1588 28.875 56.0188 28.875ZM63.8485 22.65C63.8485 22.26 63.5335 21.945 63.1435 21.945C62.7535 21.945 62.4385 22.26 62.4385 22.65V29.295C62.4385 29.685 62.7535 30 63.1435 30C63.5335 30 63.8485 29.685 63.8485 29.295V25.2C63.8485 24.825 63.9235 24.39 64.1335 24.06C64.4935 23.46 65.2135 23.145 65.8585 23.145C66.5785 23.145 67.0585 23.49 67.2385 24C67.3285 24.255 67.3585 24.705 67.3585 25.065V29.295C67.3585 29.685 67.6735 30 68.0635 30C68.4535 30 68.7685 29.685 68.7685 29.295V24.99C68.7685 24.285 68.7085 23.595 68.3785 23.04C67.8835 22.2 66.9685 21.87 66.1285 21.87C65.1535 21.87 64.3285 22.275 63.8485 22.83V22.65ZM77.5163 23.22C77.6813 23.07 77.8013 22.86 77.8013 22.635C77.8013 22.245 77.4713 21.945 77.1113 21.945C76.9163 21.945 76.7363 22.035 76.6013 22.17L73.1213 25.65V19.86C73.1213 19.47 72.8063 19.155 72.4163 19.155C72.0263 19.155 71.7113 19.47 71.7113 19.86V29.295C71.7113 29.685 72.0263 30 72.4163 30C72.8063 30 73.1213 29.685 73.1213 29.295V27.435L74.1713 26.43L76.7813 29.76C76.9463 29.97 77.1563 30.03 77.3213 30.03C77.6963 30.03 78.0113 29.715 78.0113 29.34C78.0113 29.145 77.9213 28.98 77.8013 28.83L75.1163 25.53L77.5163 23.22ZM86.1805 25.755C86.1805 23.235 84.7855 21.87 83.0155 21.87C81.2305 21.87 79.6105 23.34 79.6105 25.98C79.6105 28.515 81.0805 30.075 83.0155 30.075C84.3055 30.075 85.1755 29.505 85.6705 28.755C85.7455 28.635 85.8355 28.47 85.8355 28.29C85.8355 27.93 85.6105 27.66 85.2505 27.66C85.0105 27.66 84.8305 27.78 84.6805 27.99C84.2605 28.575 83.7655 28.875 82.9855 28.875C81.8605 28.875 81.1105 27.885 81.0055 26.49H85.5055C85.8805 26.49 86.1805 26.265 86.1805 25.755ZM84.8005 25.29H81.0355C81.1405 23.925 81.9355 23.07 83.0155 23.07C84.0805 23.07 84.7555 23.925 84.8005 25.29ZM91.5545 30.075C92.3945 30.075 93.0995 29.685 93.6245 29.055V29.295C93.6245 29.685 93.9395 30 94.3295 30C94.7195 30 95.0345 29.685 95.0345 29.295V19.86C95.0345 19.47 94.7195 19.155 94.3295 19.155C93.9395 19.155 93.6245 19.47 93.6245 19.86V22.83C93.1595 22.29 92.4845 21.87 91.4645 21.87C89.5895 21.87 88.1945 23.535 88.1945 25.965C88.1945 28.44 89.6645 30.075 91.5545 30.075ZM91.6145 23.07C92.7545 23.07 93.6395 24.15 93.6395 25.965C93.6395 27.765 92.7545 28.875 91.6145 28.875C90.4445 28.875 89.5895 27.765 89.5895 25.965C89.5895 24.15 90.4445 23.07 91.6145 23.07ZM107.15 21.846C107.15 20.964 106.43 20.244 105.53 20.244C104.648 20.244 103.928 20.964 103.928 21.846C103.928 22.746 104.648 23.466 105.53 23.466C106.43 23.466 107.15 22.746 107.15 21.846ZM107.15 28.488C107.15 27.588 106.43 26.868 105.53 26.868C104.648 26.868 103.928 27.588 103.928 28.488C103.928 29.37 104.648 30.09 105.53 30.09C106.43 30.09 107.15 29.37 107.15 28.488ZM123.367 27.09C123.367 26.13 123.157 25.65 122.722 25.155C122.227 24.6 121.567 24.315 120.427 24.03L119.047 23.685C117.457 23.28 116.947 22.815 116.947 21.9C116.947 20.865 117.817 19.875 119.602 19.875C120.712 19.875 121.282 20.22 122.002 20.865C122.122 20.97 122.227 21.06 122.392 21.06C122.722 21.06 122.842 20.805 122.842 20.595C122.842 20.385 122.722 20.265 122.662 20.205C122.077 19.62 121.162 19.005 119.677 19.005C117.232 19.005 115.972 20.46 115.972 21.915C115.972 23.505 117.187 24.165 118.987 24.63L120.262 24.96C121.087 25.17 121.522 25.35 121.897 25.71C122.257 26.07 122.392 26.475 122.392 27.06C122.392 27.495 122.272 27.975 121.897 28.41C121.477 28.905 120.787 29.28 119.722 29.28C118.387 29.28 117.562 28.785 116.692 27.57C116.572 27.405 116.422 27.375 116.287 27.375C116.002 27.375 115.822 27.6 115.822 27.855C115.822 27.945 115.867 28.08 115.942 28.185C116.902 29.49 118.057 30.165 119.737 30.165C121.177 30.165 121.957 29.715 122.617 29.01C123.097 28.485 123.367 27.765 123.367 27.09ZM131.888 25.83C131.888 23.235 130.463 21.87 128.708 21.87C126.983 21.87 125.303 23.34 125.303 25.98C125.303 28.515 126.758 30.075 128.693 30.075C129.998 30.075 130.853 29.49 131.348 28.71C131.408 28.62 131.468 28.47 131.468 28.335C131.468 28.05 131.273 27.9 131.033 27.9C130.853 27.9 130.763 28.005 130.658 28.14C130.193 28.785 129.638 29.235 128.678 29.235C127.328 29.235 126.233 28.005 126.233 26.295H131.408C131.693 26.295 131.888 26.13 131.888 25.83ZM130.958 25.485H126.233C126.368 23.76 127.433 22.71 128.708 22.71C129.998 22.71 130.913 23.76 130.958 25.485ZM137.336 21.87C135.491 21.87 133.916 23.415 133.916 25.98C133.916 28.485 135.431 30.075 137.336 30.075C138.761 30.075 139.751 29.265 140.126 28.29C140.156 28.2 140.186 28.095 140.186 27.99C140.186 27.735 140.021 27.555 139.766 27.555C139.586 27.555 139.451 27.645 139.316 27.96C139.001 28.65 138.386 29.235 137.336 29.235C135.941 29.235 134.831 28.02 134.831 25.95C134.831 23.925 135.941 22.71 137.336 22.71C138.401 22.71 138.956 23.295 139.271 24.075C139.346 24.27 139.526 24.405 139.721 24.405C139.976 24.405 140.141 24.21 140.141 23.97C140.141 23.865 140.126 23.775 140.081 23.655C139.721 22.725 138.821 21.87 137.336 21.87ZM148.041 26.715C148.041 27.36 147.951 27.885 147.636 28.29C147.276 28.74 146.586 29.22 145.536 29.22C144.621 29.22 144.036 28.86 143.751 28.2C143.616 27.9 143.541 27.405 143.541 26.97V22.395C143.541 22.14 143.331 21.945 143.076 21.945C142.821 21.945 142.626 22.14 142.626 22.395V27C142.626 27.72 142.731 28.365 143.031 28.89C143.451 29.61 144.276 30.075 145.461 30.075C146.616 30.075 147.486 29.58 148.041 28.935V29.535C148.041 29.79 148.236 30 148.491 30C148.746 30 148.956 29.79 148.956 29.535V22.395C148.956 22.14 148.746 21.945 148.491 21.945C148.236 21.945 148.041 22.14 148.041 22.395V26.715ZM157.012 23.535C157.102 23.655 157.252 23.715 157.372 23.715C157.657 23.715 157.807 23.49 157.807 23.265C157.807 23.13 157.762 23.025 157.672 22.905C157.207 22.29 156.442 21.87 155.422 21.87C154.297 21.87 153.532 22.35 152.992 23.01V22.41C152.992 22.155 152.797 21.945 152.542 21.945C152.287 21.945 152.077 22.155 152.077 22.41V29.55C152.077 29.805 152.287 30 152.542 30C152.797 30 152.992 29.805 152.992 29.55V25.23C152.992 24.585 153.082 24.06 153.397 23.655C153.757 23.205 154.342 22.71 155.392 22.71C156.187 22.71 156.667 23.1 157.012 23.535ZM165.711 25.83C165.711 23.235 164.286 21.87 162.531 21.87C160.806 21.87 159.126 23.34 159.126 25.98C159.126 28.515 160.581 30.075 162.516 30.075C163.821 30.075 164.676 29.49 165.171 28.71C165.231 28.62 165.291 28.47 165.291 28.335C165.291 28.05 165.096 27.9 164.856 27.9C164.676 27.9 164.586 28.005 164.481 28.14C164.016 28.785 163.461 29.235 162.501 29.235C161.151 29.235 160.056 28.005 160.056 26.295H165.231C165.516 26.295 165.711 26.13 165.711 25.83ZM164.781 25.485H160.056C160.191 23.76 161.256 22.71 162.531 22.71C163.821 22.71 164.736 23.76 164.781 25.485ZM173.481 29.52C173.481 29.79 173.691 30 173.961 30H177.906C180.021 30 181.296 28.665 181.296 26.88C181.296 25.56 180.651 24.54 179.436 24.165C180.276 23.73 180.801 22.965 180.801 21.915C180.801 20.175 179.466 19.155 177.801 19.155H173.961C173.691 19.155 173.481 19.38 173.481 19.65V29.52ZM177.891 24.66C179.451 24.66 180.321 25.575 180.321 26.88C180.321 28.005 179.511 29.1 177.891 29.1H174.456V24.66H177.891ZM177.681 20.055C178.896 20.055 179.796 20.745 179.796 21.915C179.796 23.04 179.106 23.76 177.711 23.76H174.441V20.055H177.681ZM186.938 29.235C185.363 29.235 184.328 28.05 184.328 25.995C184.328 23.925 185.393 22.71 186.938 22.71C188.273 22.71 189.368 24 189.368 26.04C189.368 28.08 188.228 29.235 186.938 29.235ZM186.908 30.075C188.108 30.075 188.963 29.355 189.368 28.605V29.55C189.368 29.805 189.563 30 189.818 30C190.073 30 190.283 29.805 190.283 29.55V22.41C190.283 22.155 190.073 21.945 189.818 21.945C189.563 21.945 189.368 22.155 189.368 22.41V23.28C188.948 22.545 188.078 21.87 186.908 21.87C184.898 21.87 183.413 23.49 183.413 25.98C183.413 28.47 184.868 30.075 186.908 30.075ZM194.315 25.23C194.315 24.585 194.405 24.06 194.72 23.655C195.08 23.205 195.77 22.725 196.82 22.725C197.735 22.725 198.32 23.085 198.605 23.745C198.74 24.045 198.815 24.54 198.815 24.975V29.55C198.815 29.805 199.025 30 199.28 30C199.535 30 199.73 29.805 199.73 29.55V24.945C199.73 24.225 199.625 23.58 199.325 23.055C198.905 22.335 198.08 21.885 196.895 21.885C195.74 21.885 194.87 22.365 194.315 23.01V22.41C194.315 22.155 194.12 21.945 193.865 21.945C193.61 21.945 193.4 22.155 193.4 22.41V29.55C193.4 29.805 193.61 30 193.865 30C194.12 30 194.315 29.805 194.315 29.55V25.23ZM208.73 22.71C208.835 22.62 208.865 22.5 208.865 22.38C208.865 22.125 208.67 21.945 208.445 21.945C208.325 21.945 208.22 21.99 208.145 22.065L203.69 26.52V19.62C203.69 19.365 203.495 19.155 203.24 19.155C202.985 19.155 202.775 19.365 202.775 19.62V29.55C202.775 29.805 202.985 30 203.24 30C203.495 30 203.69 29.805 203.69 29.55V27.63L205.295 26.055L208.31 29.865C208.385 29.97 208.52 30 208.625 30C208.865 30 209.045 29.805 209.045 29.595C209.045 29.49 209 29.385 208.925 29.28L205.88 25.485L208.73 22.71ZM222.435 20.055C222.69 20.055 222.885 19.86 222.885 19.605C222.885 19.35 222.69 19.155 222.435 19.155H215.46C215.205 19.155 215.01 19.35 215.01 19.605C215.01 19.86 215.205 20.055 215.46 20.055H218.46V29.52C218.46 29.79 218.67 30 218.94 30C219.21 30 219.435 29.79 219.435 29.52V20.055H222.435ZM228.481 23.535C228.571 23.655 228.721 23.715 228.841 23.715C229.126 23.715 229.276 23.49 229.276 23.265C229.276 23.13 229.231 23.025 229.141 22.905C228.676 22.29 227.911 21.87 226.891 21.87C225.766 21.87 225.001 22.35 224.461 23.01V22.41C224.461 22.155 224.266 21.945 224.011 21.945C223.756 21.945 223.546 22.155 223.546 22.41V29.55C223.546 29.805 223.756 30 224.011 30C224.266 30 224.461 29.805 224.461 29.55V25.23C224.461 24.585 224.551 24.06 224.866 23.655C225.226 23.205 225.811 22.71 226.861 22.71C227.656 22.71 228.136 23.1 228.481 23.535ZM234.106 29.235C232.531 29.235 231.496 28.05 231.496 25.995C231.496 23.925 232.561 22.71 234.106 22.71C235.441 22.71 236.536 24 236.536 26.04C236.536 28.08 235.396 29.235 234.106 29.235ZM234.076 30.075C235.276 30.075 236.131 29.355 236.536 28.605V29.55C236.536 29.805 236.731 30 236.986 30C237.241 30 237.451 29.805 237.451 29.55V22.41C237.451 22.155 237.241 21.945 236.986 21.945C236.731 21.945 236.536 22.155 236.536 22.41V23.28C236.116 22.545 235.246 21.87 234.076 21.87C232.066 21.87 230.581 23.49 230.581 25.98C230.581 28.47 232.036 30.075 234.076 30.075ZM241.483 25.23C241.483 24.585 241.573 24.06 241.888 23.655C242.248 23.205 242.938 22.725 243.988 22.725C244.903 22.725 245.488 23.085 245.773 23.745C245.908 24.045 245.983 24.54 245.983 24.975V29.55C245.983 29.805 246.193 30 246.448 30C246.703 30 246.898 29.805 246.898 29.55V24.945C246.898 24.225 246.793 23.58 246.493 23.055C246.073 22.335 245.248 21.885 244.063 21.885C242.908 21.885 242.038 22.365 241.483 23.01V22.41C241.483 22.155 241.288 21.945 241.033 21.945C240.778 21.945 240.568 22.155 240.568 22.41V29.55C240.568 29.805 240.778 30 241.033 30C241.288 30 241.483 29.805 241.483 29.55V25.23ZM249.418 28.635C249.943 29.265 250.873 30.075 252.628 30.075C254.293 30.075 255.643 29.175 255.643 27.675C255.643 26.58 254.938 25.875 253.603 25.59L252.028 25.26C250.813 25.005 250.423 24.6 250.423 24.015C250.423 23.415 251.098 22.695 252.418 22.695C253.168 22.695 253.828 23.01 254.488 23.505C254.608 23.595 254.728 23.625 254.833 23.625C255.073 23.625 255.238 23.46 255.238 23.22C255.238 23.085 255.163 22.95 255.073 22.875C254.428 22.29 253.543 21.87 252.418 21.87C250.738 21.87 249.493 22.845 249.493 24.045C249.493 25.125 250.213 25.74 251.878 26.085L253.438 26.415C254.353 26.61 254.698 27 254.698 27.705C254.698 28.56 253.963 29.25 252.628 29.25C251.308 29.25 250.693 28.65 250.078 28.005C250.003 27.93 249.868 27.87 249.748 27.87C249.493 27.87 249.313 28.08 249.313 28.335C249.313 28.455 249.358 28.56 249.418 28.635ZM259.992 21.15C259.992 20.235 260.412 19.575 261.192 19.575C261.702 19.575 262.017 19.86 262.302 20.22C262.377 20.31 262.482 20.385 262.632 20.385C262.917 20.385 263.067 20.13 263.067 19.92C263.067 19.8 263.007 19.695 262.962 19.62C262.587 19.08 262.002 18.735 261.192 18.735C259.947 18.735 259.077 19.65 259.077 21.15V21.945H257.427C257.202 21.945 257.007 22.14 257.007 22.365C257.007 22.59 257.202 22.785 257.427 22.785H259.077V29.385C259.077 29.64 259.272 29.85 259.527 29.85C259.782 29.85 259.992 29.64 259.992 29.385V22.785H262.137C262.362 22.785 262.557 22.59 262.557 22.365C262.557 22.14 262.362 21.945 262.137 21.945H259.992V21.15ZM270.389 25.83C270.389 23.235 268.964 21.87 267.209 21.87C265.484 21.87 263.804 23.34 263.804 25.98C263.804 28.515 265.259 30.075 267.194 30.075C268.499 30.075 269.354 29.49 269.849 28.71C269.909 28.62 269.969 28.47 269.969 28.335C269.969 28.05 269.774 27.9 269.534 27.9C269.354 27.9 269.264 28.005 269.159 28.14C268.694 28.785 268.139 29.235 267.179 29.235C265.829 29.235 264.734 28.005 264.734 26.295H269.909C270.194 26.295 270.389 26.13 270.389 25.83ZM269.459 25.485H264.734C264.869 23.76 265.934 22.71 267.209 22.71C268.499 22.71 269.414 23.76 269.459 25.485ZM277.847 23.535C277.937 23.655 278.087 23.715 278.207 23.715C278.492 23.715 278.642 23.49 278.642 23.265C278.642 23.13 278.597 23.025 278.507 22.905C278.042 22.29 277.277 21.87 276.257 21.87C275.132 21.87 274.367 22.35 273.827 23.01V22.41C273.827 22.155 273.632 21.945 273.377 21.945C273.122 21.945 272.912 22.155 272.912 22.41V29.55C272.912 29.805 273.122 30 273.377 30C273.632 30 273.827 29.805 273.827 29.55V25.23C273.827 24.585 273.917 24.06 274.232 23.655C274.592 23.205 275.177 22.71 276.227 22.71C277.022 22.71 277.502 23.1 277.847 23.535Z" fill="#FAFAFA"/>
</svg>
