<svg width="437" height="80" viewBox="0 0 437 80" fill="none" xmlns="http://www.w3.org/2000/svg">
<path d="M56.9599 55.7943C56.9599 46.5657 51.7485 39.6172 44.7999 36.6858C49.3599 33.4286 53.2685 28.6515 53.2685 21.4857C53.2685 15.1886 50.8799 10.0858 46.9714 6.5029C42.9542 2.70289 37.3085 0.857178 28.8399 0.857178H5.71422C2.67421 0.857178 0.285645 3.24575 0.285645 6.28575V73.9257C0.285645 76.8572 2.67421 79.3543 5.60564 79.3543H29.9256C47.2971 79.3543 56.9599 69.04 56.9599 55.7943ZM42.5199 21.7029C42.5199 28 39.3714 32.6686 29.9256 32.6686H11.1428V10.6286H28.5142C37.9599 10.6286 42.5199 14.8629 42.5199 21.7029ZM45.7771 55.9029C45.7771 64.0458 40.0228 69.5829 30.1428 69.5829H11.1428V42.2229H30.5771C40.8914 42.2229 45.7771 47.4343 45.7771 55.9029Z" fill="#141414"/>
<path d="M108.516 72.1886V74.2515C108.516 77.0743 110.796 79.3543 113.619 79.3543C116.441 79.3543 118.721 77.0743 118.721 74.2515V26.1543C118.721 23.3315 116.441 21.0515 113.619 21.0515C110.796 21.0515 108.516 23.3315 108.516 26.1543V27.7829C104.824 22.7886 99.1786 20.5086 93.5329 20.5086C79.7443 20.5086 69.2129 32.4515 69.2129 50.2572C69.2129 68.1715 79.8529 79.8972 93.6414 79.8972C99.9386 79.8972 105.259 77.0743 108.516 72.1886ZM93.9672 71.2115C85.4986 71.2115 79.31 63.3943 79.31 50.2572C79.31 37.2286 85.4986 29.1943 93.9672 29.1943C102.219 29.1943 108.624 37.2286 108.624 50.2572C108.624 63.3943 102.219 71.2115 93.9672 71.2115Z" fill="#141414"/>
<path d="M147.782 26.1543C147.782 23.3315 145.502 21.0515 142.679 21.0515C139.856 21.0515 137.576 23.3315 137.576 26.1543V74.2515C137.576 77.0743 139.856 79.3543 142.679 79.3543C145.502 79.3543 147.782 77.0743 147.782 74.2515V44.6115C147.782 41.8972 148.325 38.7486 149.845 36.36C152.45 32.0172 157.662 29.7372 162.33 29.7372C167.542 29.7372 171.016 32.2343 172.319 35.9258C172.97 37.7715 173.187 41.0286 173.187 43.6343V74.2515C173.187 77.0743 175.467 79.3543 178.29 79.3543C181.113 79.3543 183.393 77.0743 183.393 74.2515V43.0915C183.393 37.9886 182.959 32.9943 180.57 28.9772C176.987 22.8972 170.365 20.5086 164.285 20.5086C157.227 20.5086 151.256 23.44 147.782 27.4572V26.1543Z" fill="#141414"/>
<path d="M243.854 30.28C245.048 29.1943 245.916 27.6743 245.916 26.0458C245.916 23.2229 243.528 21.0515 240.922 21.0515C239.511 21.0515 238.208 21.7029 237.231 22.68L212.042 47.8686V5.96003C212.042 3.13718 209.762 0.857178 206.939 0.857178C204.116 0.857178 201.836 3.13718 201.836 5.96003V74.2515C201.836 77.0743 204.116 79.3543 206.939 79.3543C209.762 79.3543 212.042 77.0743 212.042 74.2515V60.7886L219.642 53.5143L238.534 77.6172C239.728 79.1372 241.248 79.5715 242.442 79.5715C245.156 79.5715 247.436 77.2915 247.436 74.5772C247.436 73.1658 246.785 71.9715 245.916 70.8858L226.482 47L243.854 30.28Z" fill="#141414"/>
<path d="M303.709 48.6286C303.709 30.3886 293.612 20.5086 280.801 20.5086C267.881 20.5086 256.155 31.1486 256.155 50.2572C256.155 68.6057 266.795 79.8972 280.801 79.8972C290.138 79.8972 296.435 75.7715 300.018 70.3429C300.561 69.4743 301.212 68.28 301.212 66.9772C301.212 64.3715 299.583 62.4172 296.978 62.4172C295.241 62.4172 293.938 63.2858 292.852 64.8058C289.812 69.04 286.229 71.2115 280.583 71.2115C272.441 71.2115 267.012 64.0457 266.252 53.9486H298.823C301.538 53.9486 303.709 52.32 303.709 48.6286ZM293.721 45.2629H266.469C267.229 35.3829 272.983 29.1943 280.801 29.1943C288.509 29.1943 293.395 35.3829 293.721 45.2629Z" fill="#141414"/>
<path d="M339.749 79.8972C345.829 79.8972 350.932 77.0743 354.732 72.5143V74.2515C354.732 77.0743 357.012 79.3543 359.835 79.3543C362.658 79.3543 364.938 77.0743 364.938 74.2515V5.96003C364.938 3.13718 362.658 0.857178 359.835 0.857178C357.012 0.857178 354.732 3.13718 354.732 5.96003V27.4572C351.367 23.5486 346.481 20.5086 339.098 20.5086C325.527 20.5086 315.429 32.56 315.429 50.1486C315.429 68.0629 326.069 79.8972 339.749 79.8972ZM340.184 29.1943C348.435 29.1943 354.841 37.0115 354.841 50.1486C354.841 63.1772 348.435 71.2115 340.184 71.2115C331.715 71.2115 325.527 63.1772 325.527 50.1486C325.527 37.0115 331.715 29.1943 340.184 29.1943Z" fill="#141414"/>
<path d="M436.179 30.1715C436.179 24.8515 431.836 20.5086 426.407 20.5086C421.087 20.5086 416.744 24.8515 416.744 30.1715C416.744 35.6 421.087 39.9429 426.407 39.9429C431.836 39.9429 436.179 35.6 436.179 30.1715ZM436.179 70.2343C436.179 64.8058 431.836 60.4629 426.407 60.4629C421.087 60.4629 416.744 64.8058 416.744 70.2343C416.744 75.5543 421.087 79.8972 426.407 79.8972C431.836 79.8972 436.179 75.5543 436.179 70.2343Z" fill="#141414"/>
</svg>
