<?xml version="1.0" encoding="UTF-8" standalone="no"?>
<svg
   xmlns:dc="http://purl.org/dc/elements/1.1/"
   xmlns:cc="http://creativecommons.org/ns#"
   xmlns:rdf="http://www.w3.org/1999/02/22-rdf-syntax-ns#"
   xmlns:svg="http://www.w3.org/2000/svg"
   xmlns="http://www.w3.org/2000/svg"
   xmlns:sodipodi="http://sodipodi.sourceforge.net/DTD/sodipodi-0.dtd"
   xmlns:inkscape="http://www.inkscape.org/namespaces/inkscape"
   id="svg"
   version="1.1"
   sodipodi:docname="treepay-button.svg"
   width="273.40399"
   height="48.723"
   inkscape:version="1.0.2 (e86c8708, 2021-01-15)">
  <metadata
     id="metadata21">
    <rdf:RDF>
      <cc:Work
         rdf:about="">
        <dc:format>image/svg+xml</dc:format>
        <dc:type
           rdf:resource="http://purl.org/dc/dcmitype/StillImage" />
        <dc:title></dc:title>
      </cc:Work>
    </rdf:RDF>
  </metadata>
  <defs
     id="defs19" />
  <sodipodi:namedview
     pagecolor="#ffffff"
     bordercolor="#666666"
     borderopacity="1"
     objecttolerance="10"
     gridtolerance="10"
     guidetolerance="10"
     inkscape:pageopacity="0"
     inkscape:pageshadow="2"
     inkscape:window-width="1808"
     inkscape:window-height="1286"
     id="namedview17"
     showgrid="false"
     fit-margin-top="0"
     fit-margin-left="0"
     fit-margin-right="0"
     fit-margin-bottom="0"
     inkscape:zoom="1"
     inkscape:cx="1.77975"
     inkscape:cy="1.2325"
     inkscape:window-x="2496"
     inkscape:window-y="25"
     inkscape:window-maximized="0"
     inkscape:current-layer="svg" />
  <g
     id="svgg"
     transform="translate(-61.064,-73.83)">
    <path
       id="path0"
       d="m 137.499,80.338 c -1.184,0.517 -2.333,1.887 -2.59,3.086 -0.317,1.479 -0.309,19.584 0.01,21.069 0.55,2.566 2.069,3.378 6.331,3.382 3.874,0.004 3.618,-0.163 3.69,2.414 l 0.06,2.158 0.798,0.066 0.798,0.066 v -2.019 c 0,-2.739 -0.068,-2.688 3.499,-2.688 3.614,0 3.967,-0.08 5.193,-1.183 1.582,-1.422 1.551,-1.144 1.478,-13.088 l -0.064,-10.547 -0.596,-0.9 c -0.327,-0.495 -1.04,-1.182 -1.584,-1.527 L 153.534,80 l -7.671,0.017 c -6.142,0.014 -7.81,0.078 -8.364,0.321 m 7.345,7.52 c 0.063,6.456 0.063,6.456 -1.17,5.563 -0.478,-0.346 -1.764,-1.08 -2.857,-1.629 -3.511,-1.766 -4.112,-2.655 -4.114,-6.083 -0.001,-3.506 0.384,-3.794 4.999,-3.73 l 3.085,0.042 0.057,5.837 m 8.878,-5.518 c 1.261,0.779 1.426,1.651 1.33,7.067 -0.11,6.283 -0.752,7.765 -3.891,8.98 -0.58,0.225 -1.573,0.751 -2.207,1.17 -1.903,1.258 -2.006,1.306 -2.189,1.018 -0.191,-0.301 -0.23,-17.83 -0.04,-18.324 0.216,-0.562 6.063,-0.489 6.997,0.089 m 15.911,4.518 c -0.116,0.149 -0.268,0.57 -0.337,0.936 -0.07,0.367 -0.189,0.918 -0.266,1.224 l -0.14,0.556 1.991,0.004 c 1.949,0.003 2.7,0.177 2.456,0.571 -0.066,0.108 -0.319,1.196 -0.56,2.417 -0.242,1.222 -0.531,2.604 -0.644,3.072 -0.113,0.468 -0.45,2.048 -0.75,3.511 -0.3,1.463 -0.632,3.042 -0.738,3.511 -0.107,0.468 -0.245,1.162 -0.308,1.542 l -0.114,0.692 h 1.8 c 1.695,0 1.804,-0.028 1.896,-0.479 0.252,-1.238 0.373,-1.819 0.54,-2.606 0.099,-0.469 0.333,-1.618 0.52,-2.554 0.187,-0.936 0.424,-2.085 0.527,-2.553 0.103,-0.468 0.449,-2.096 0.768,-3.617 0.791,-3.765 0.569,-3.511 3.052,-3.511 h 2.078 l 0.241,-0.691 c 0.133,-0.38 0.272,-1.027 0.309,-1.436 l 0.067,-0.745 -6.088,-0.056 c -4.711,-0.044 -6.136,0.004 -6.3,0.212 m 55.594,-0.027 c -0.055,0.163 -0.21,0.871 -0.344,1.573 -0.134,0.702 -0.319,1.612 -0.413,2.022 -0.212,0.935 -1.244,5.743 -1.505,7.021 -0.108,0.526 -0.293,1.388 -0.411,1.915 -0.214,0.955 -0.799,3.838 -1.005,4.947 l -0.108,0.585 h 1.786 1.787 l 0.592,-2.926 c 0.767,-3.789 0.582,-3.537 2.714,-3.7 4.705,-0.359 7.212,-2.571 7.212,-6.364 0,-2.316 -0.932,-3.906 -2.766,-4.716 -1.261,-0.558 -7.371,-0.846 -7.539,-0.357 m 5.576,3.17 c 2.415,1.472 0.825,4.924 -2.423,5.259 -1.349,0.14 -1.326,0.208 -0.804,-2.388 0.189,-0.936 0.388,-1.941 0.443,-2.234 0.055,-0.292 0.138,-0.651 0.183,-0.798 0.131,-0.423 1.813,-0.32 2.601,0.161 m 11.857,0.808 c -1.936,0.195 -4.385,2.786 -5.044,5.334 -0.869,3.367 -0.806,5.701 0.198,7.322 1.293,2.088 4.148,2.256 6.296,0.371 0.854,-0.75 1.182,-0.56 0.909,0.526 -0.132,0.526 -0.119,0.532 1.254,0.532 0.762,0 1.388,-0.072 1.389,-0.16 0.003,-0.138 0.409,-2.106 1.042,-5.053 0.222,-1.031 1.272,-6.046 1.516,-7.244 0.097,-0.473 0.207,-0.999 0.244,-1.17 0.053,-0.24 -0.226,-0.324 -1.235,-0.372 l -1.303,-0.063 -0.344,0.861 c -0.394,0.985 -0.788,1.088 -1.281,0.336 -0.589,-0.899 -2.032,-1.383 -3.641,-1.22 m -58.621,0.584 c -0.114,0.299 -0.299,1.041 -0.412,1.649 -0.307,1.655 -0.596,3.066 -0.968,4.724 -0.322,1.437 -0.564,2.547 -0.994,4.574 -0.112,0.527 -0.255,1.321 -0.319,1.765 l -0.116,0.807 1.776,-0.063 1.775,-0.062 0.161,-0.851 c 0.088,-0.468 0.257,-1.306 0.375,-1.862 0.118,-0.555 0.307,-1.465 0.419,-2.021 0.811,-4.014 2.609,-6.193 4.953,-6.002 0.86,0.069 0.965,0.001 1.078,-0.7 0.062,-0.38 0.181,-1.098 0.264,-1.596 l 0.153,-0.904 h -1.157 c -1.254,0 -2.671,0.706 -3.489,1.736 -0.845,1.067 -1.004,0.985 -0.839,-0.432 l 0.151,-1.304 h -1.302 c -1.201,0 -1.319,0.043 -1.509,0.542 m 13.614,-0.051 c -5.209,2.519 -6.698,10.964 -2.334,13.238 1.413,0.736 5.219,0.644 7.075,-0.171 0.566,-0.249 0.955,-2.719 0.425,-2.702 -0.088,0.003 -0.725,0.195 -1.416,0.426 -2.955,0.988 -5.02,0.07 -5.02,-2.233 0,-0.491 0.08,-0.539 0.904,-0.542 4.683,-0.021 7.622,-1.772 7.778,-4.636 0.179,-3.272 -3.843,-5.106 -7.412,-3.38 m 15.113,-0.283 c -0.176,0.1 -0.654,0.33 -1.064,0.511 -4.068,1.796 -5.853,9.319 -2.888,12.169 1.52,1.461 4.771,1.807 7.729,0.823 l 1.117,-0.371 v -1.269 c 0,-1.112 -0.047,-1.255 -0.373,-1.153 -3.772,1.185 -5.35,0.996 -6.129,-0.731 -0.539,-1.196 -0.37,-1.559 0.759,-1.632 6.072,-0.391 9.174,-3.172 7.392,-6.627 -0.845,-1.637 -4.848,-2.69 -6.543,-1.72 m 39.897,-10e-4 c -0.076,0.124 -0.043,0.726 0.074,1.339 0.282,1.469 0.573,3.34 0.986,6.326 0.185,1.346 0.429,2.909 0.541,3.474 0.742,3.74 -0.978,6.406 -3.892,6.031 l -0.798,-0.102 v 1.469 1.469 l 0.798,0.02 c 3.62,0.094 5.365,-1.078 7.377,-4.954 0.844,-1.625 3.211,-6.078 5.124,-9.641 3.373,-6.28 3.298,-5.698 0.724,-5.595 l -1.576,0.063 -1.595,3.204 c -0.878,1.763 -1.818,3.725 -2.089,4.362 -0.271,0.637 -0.582,1.324 -0.691,1.527 -0.11,0.204 -0.199,0.515 -0.199,0.692 0,1.076 -0.387,0.043 -0.497,-1.327 -0.126,-1.562 -0.375,-3.986 -0.728,-7.075 l -0.158,-1.383 -1.631,-0.061 c -0.982,-0.038 -1.686,0.027 -1.77,0.162 M 137.94,92.413 c 0.372,0.274 1.012,0.627 1.422,0.785 0.409,0.157 1.102,0.508 1.538,0.778 0.437,0.271 0.877,0.492 0.98,0.492 0.102,0 0.662,0.503 1.243,1.118 1.627,1.72 1.795,2.369 1.724,6.648 l -0.06,3.617 -3.203,0.059 -3.203,0.058 -0.839,-0.725 -0.84,-0.726 -0.062,-6.301 c -0.069,-6.998 -0.106,-6.836 1.3,-5.803 m 63.496,1.256 c 0.629,0.503 0.215,1.941 -0.727,2.523 -0.766,0.474 -3.237,0.9 -3.55,0.612 -1.363,-1.252 2.809,-4.31 4.277,-3.135 m 14.188,-0.27 c 0.897,0.341 0.795,1.922 -0.172,2.659 -0.673,0.513 -3.338,1.086 -3.803,0.817 -1.061,-0.612 1.379,-3.329 3.284,-3.658 0.08,-0.014 0.391,0.068 0.691,0.182 m 29.281,0.437 c 2.223,1.19 0.514,7.835 -2.151,8.369 -1.595,0.318 -2.464,-1.049 -2.091,-3.289 0.639,-3.828 2.475,-6.026 4.242,-5.08 m -89.928,5.011 c 0.707,1.841 -0.146,6.163 -1.337,6.779 -0.93,0.482 -6.573,0.485 -6.758,0.004 -0.54,-1.407 2.066,-4.267 5.033,-5.522 0.526,-0.223 1.34,-0.669 1.808,-0.992 1.005,-0.692 1.085,-0.709 1.254,-0.269"
       stroke="none"
       fill="#f5eedd"
       fill-rule="evenodd" />
    <path
       id="path1"
       d="m 61.064,98.191 v 24.362 H 197.766 334.468 V 98.191 73.83 H 197.766 61.064 v 24.361 m 93.381,-18.056 c 1.532,0.763 2.476,2.083 2.796,3.908 0.427,2.438 0.196,20.125 -0.276,21.072 -1.289,2.585 -2.582,3.234 -6.693,3.358 l -3.038,0.091 v 1.873 c 0,2.166 -0.216,2.542 -1.462,2.542 -1.171,0 -1.304,-0.252 -1.304,-2.461 v -1.95 l -3.138,-0.111 c -4.231,-0.15 -5.612,-0.824 -6.649,-3.244 -0.652,-1.52 -0.66,-21.04 -0.01,-22.483 1.342,-2.976 1.907,-3.135 11.191,-3.146 l 7.459,-0.01 1.124,0.561 m -16.397,2.57 c -0.822,0.51 -1.027,1.134 -1.027,3.136 0,2.96 0.796,4.038 4.202,5.694 1.2,0.583 2.181,1.131 2.181,1.218 0,0.086 0.24,0.266 0.532,0.4 l 0.532,0.242 V 87.868 82.34 l -2.925,0.006 c -2.348,0.005 -3.038,0.075 -3.495,0.359 m 9.186,8.599 v 8.963 l 0.692,-0.552 c 0.38,-0.303 1.553,-0.982 2.606,-1.508 3.854,-1.925 3.936,-2.116 3.936,-9.177 v -5.455 l -0.661,-0.617 -0.661,-0.618 h -2.956 -2.956 v 8.964 m -6.195,-6.186 c 1.42,0.798 2.598,3.251 1.897,3.952 -1.258,1.258 -5.279,-2.622 -4.322,-4.171 0.227,-0.367 1.603,-0.243 2.425,0.219 m 41.256,1.39 c 0.186,0.332 0.001,1.481 -0.434,2.694 l -0.21,0.585 h -2.185 -2.184 l -0.121,0.585 c -0.066,0.322 -0.211,1.016 -0.322,1.543 -0.111,0.526 -0.355,1.723 -0.541,2.659 -0.187,0.937 -0.432,2.086 -0.544,2.554 -0.3,1.258 -1.107,5.16 -1.473,7.127 l -0.138,0.745 -1.999,0.062 c -2.404,0.074 -2.397,0.079 -2.001,-1.658 0.349,-1.528 0.611,-2.727 0.897,-4.095 0.103,-0.498 0.354,-1.671 0.556,-2.607 0.203,-0.936 0.411,-2.037 0.463,-2.447 0.052,-0.409 0.178,-0.936 0.278,-1.17 0.167,-0.386 0.397,-1.672 0.497,-2.766 0.036,-0.396 -0.109,-0.43 -2.058,-0.487 l -2.096,-0.061 0.116,-0.79 c 0.223,-1.52 0.408,-2.281 0.618,-2.545 0.356,-0.446 12.63,-0.378 12.881,0.072 m 48.806,-0.098 c 3.384,0.715 4.644,2.18 4.644,5.403 0,4.085 -2.46,6.386 -7.282,6.814 -1.798,0.159 -1.974,0.272 -2.146,1.373 -0.064,0.41 -0.178,1.032 -0.254,1.383 -0.076,0.351 -0.284,1.332 -0.462,2.181 l -0.325,1.542 h -2.101 -2.101 l 0.113,-0.691 c 0.062,-0.38 0.198,-1.027 0.303,-1.436 0.202,-0.786 0.261,-1.067 0.75,-3.617 0.168,-0.878 0.409,-2.027 0.534,-2.553 0.125,-0.527 0.307,-1.341 0.402,-1.809 0.096,-0.468 0.439,-2.096 0.762,-3.617 0.323,-1.521 0.635,-3.101 0.694,-3.51 0.25,-1.728 2.649,-2.271 6.469,-1.463 m -77.942,2.091 c 0.201,1.426 -0.937,3.206 -2.471,3.864 -1.771,0.759 -2.373,0.428 -1.967,-1.079 0.613,-2.276 4.193,-4.523 4.438,-2.785 m 75.342,1.446 c -0.005,0.088 -0.106,0.59 -0.226,1.117 -0.119,0.526 -0.297,1.388 -0.396,1.915 -0.099,0.526 -0.247,1.173 -0.331,1.436 -0.35,1.109 2.637,0.437 3.511,-0.791 0.564,-0.792 0.598,-2.567 0.058,-3.018 -0.786,-0.657 -2.589,-1.111 -2.616,-0.659 m -36.025,0.798 c 0.157,0.408 -0.531,3.315 -0.87,3.679 -0.183,0.197 -0.406,0.217 -0.789,0.072 -0.318,-0.121 -0.655,-0.126 -0.835,-0.012 -0.166,0.104 -0.517,0.192 -0.78,0.194 -0.263,0.001 -0.479,0.082 -0.479,0.18 0,0.097 -0.23,0.3 -0.511,0.45 -0.538,0.288 -1.616,2.056 -1.616,2.649 0,0.191 -0.086,0.513 -0.19,0.716 -0.105,0.203 -0.31,0.992 -0.456,1.753 -0.147,0.76 -0.354,1.813 -0.461,2.34 -0.106,0.527 -0.247,1.269 -0.311,1.649 l -0.118,0.691 h -2.105 c -2.315,0 -2.216,0.079 -1.881,-1.489 0.113,-0.527 0.304,-1.436 0.426,-2.021 0.121,-0.585 0.308,-1.447 0.415,-1.915 0.107,-0.468 0.289,-1.33 0.405,-1.915 0.117,-0.585 0.363,-1.734 0.549,-2.553 0.185,-0.819 0.416,-1.92 0.514,-2.447 0.383,-2.067 0.472,-2.155 2.094,-2.084 l 1.438,0.063 0.066,0.91 0.065,0.91 0.856,-0.732 c 1.572,-1.346 4.233,-1.979 4.574,-1.088 m 10.736,0.137 c 1.567,0.883 2.522,2.626 2.23,4.069 -0.053,0.261 -0.153,0.741 -0.222,1.067 -0.393,1.853 -3.811,3.556 -7.138,3.556 h -1.273 v 0.698 c 0,1.918 2.966,2.59 5.483,1.243 0.962,-0.514 1.112,-0.346 1.112,1.245 0,1.749 -0.18,1.909 -2.771,2.454 -3.436,0.723 -7.442,-0.556 -7.442,-2.376 0,-0.156 -0.076,-0.285 -0.17,-0.285 -0.649,0 -0.701,-4.433 -0.07,-6.064 1.271,-3.284 3.443,-5.436 5.985,-5.929 0.952,-0.185 3.751,0.026 4.276,0.322 m 14.85,0.214 c 1.322,0.707 1.938,1.768 1.938,3.335 0,3.103 -2.373,4.807 -7.074,5.08 -1.568,0.091 -1.649,0.121 -1.649,0.602 0,2.091 2.796,2.729 5.855,1.336 1.325,-0.604 1.408,2.45 0.085,3.135 -4.992,2.581 -10.196,0.085 -10.196,-4.889 0,-6.535 6.068,-11.26 11.041,-8.599 m 27.178,-0.324 c 0.401,0.19 0.908,0.573 1.126,0.851 0.469,0.595 0.865,0.655 0.875,0.132 0.016,-0.882 0.508,-1.141 2.045,-1.074 l 1.459,0.064 -0.024,0.638 c -0.013,0.351 -0.139,1.117 -0.278,1.702 -0.469,1.96 -0.68,2.948 -1.206,5.638 -0.172,0.878 -0.396,1.931 -0.5,2.341 -0.103,0.409 -0.285,1.223 -0.405,1.808 -0.509,2.497 -0.267,2.234 -2.059,2.234 -1.556,0 -1.592,-0.012 -1.592,-0.532 0,-0.637 -0.085,-0.651 -0.818,-0.13 -0.897,0.637 -2.146,1.088 -3.012,1.088 -6.27,0 -5.181,-12.766 1.277,-14.964 0.695,-0.237 2.421,-0.124 3.112,0.204 m 11.192,0.93 c 0.185,1.137 0.575,4.581 0.77,6.788 l 0.138,1.575 0.392,-0.937 c 0.215,-0.515 0.897,-1.99 1.515,-3.277 0.619,-1.287 1.396,-2.915 1.727,-3.617 0.767,-1.627 0.694,-1.589 3.003,-1.592 2.235,-0.004 2.372,0.091 1.744,1.206 -0.251,0.446 -0.864,1.578 -1.362,2.514 -0.498,0.936 -1.264,2.372 -1.702,3.191 -0.438,0.819 -1.249,2.351 -1.802,3.404 -2.005,3.817 -3.523,6.557 -4.219,7.612 -1.133,1.719 -3.505,2.92 -5.766,2.92 -1.594,0 -1.759,-0.201 -1.678,-2.055 l 0.063,-1.455 1.56,-0.121 c 1.704,-0.133 2.308,-0.541 3.119,-2.109 0.391,-0.757 0.41,-0.434 -0.329,-5.749 -0.09,-0.644 -0.223,-1.601 -0.296,-2.128 -0.073,-0.526 -0.222,-1.436 -0.331,-2.021 -0.966,-5.181 -0.948,-5.246 1.433,-5.168 l 1.866,0.062 0.155,0.957 m -119.41,6.548 c 0,6.243 0.146,7.069 1.247,7.069 0.133,0 0.242,0.096 0.242,0.213 0,0.132 1.134,0.213 2.978,0.213 h 2.979 v -3.682 c 0,-5.036 -0.901,-6.695 -4.406,-8.114 -0.561,-0.227 -1.474,-0.679 -2.03,-1.005 l -1.011,-0.593 0.001,5.899 m 62.34,-4.482 c -0.565,0.208 -1.858,1.724 -1.97,2.309 l -0.108,0.568 1.28,-0.145 c 1.748,-0.198 2.904,-0.964 2.919,-1.936 0.012,-0.817 -1.015,-1.203 -2.121,-0.796 m 14.249,0.214 c -0.753,0.522 -1.909,2.073 -1.909,2.562 0,0.676 3.718,-0.533 4.079,-1.326 0.622,-1.366 -0.807,-2.181 -2.17,-1.236 m 29.065,0.754 c -2.094,2.188 -2.343,7.179 -0.359,7.179 2.549,0 4.658,-6.837 2.424,-7.855 -0.833,-0.379 -1.155,-0.274 -2.065,0.676 m -101.794,3.366 c 1.992,1.066 3.061,4.238 1.429,4.238 -1.899,0 -4.287,-2.681 -3.715,-4.171 0.138,-0.358 1.658,-0.403 2.286,-0.067 m 11.199,2.299 c -2.44,1.278 -3.65,2.291 -4.387,3.671 -0.881,1.65 -0.849,1.673 2.397,1.673 h 2.857 l 0.76,-0.717 0.76,-0.717 v -2.581 c 0,-1.419 -0.024,-2.568 -0.053,-2.552 -0.029,0.016 -1.08,0.566 -2.334,1.223"
       stroke="none"
       fill="#0c5454"
       fill-rule="evenodd" />
    <path
       id="path2"
       d="m 137.353,80.223 c -0.945,0.471 -1.75,1.166 -2.086,1.798 -0.124,0.234 0.176,0.015 0.666,-0.487 1.409,-1.442 1.242,-1.416 9.812,-1.539 l 7.766,-0.112 -7.66,-0.039 c -7.235,-0.038 -7.706,-0.017 -8.498,0.379 m 17.169,0.404 c 0.544,0.345 1.257,1.032 1.584,1.527 l 0.596,0.899 0.111,10.761 0.111,10.76 0.044,-10.531 c 0.047,-11.317 0.056,-11.216 -1.056,-12.58 C 155.55,81.019 154.051,80 153.758,80 c -0.123,0 0.221,0.282 0.764,0.627 m -13.033,1.489 3.085,0.118 0.057,5.692 c 0.061,6.142 0.08,6.052 -1.081,5.186 -1.094,-0.816 -3.337,-1.975 -3.337,-1.725 0,0.053 0.583,0.391 1.296,0.751 0.714,0.36 1.688,0.938 2.166,1.284 1.231,0.892 1.232,0.891 1.169,-5.564 l -0.057,-5.837 -3.191,-0.012 -3.192,-0.012 3.085,0.119 m 5.236,0.135 c -0.19,0.494 -0.151,18.023 0.04,18.324 0.181,0.285 0.241,0.257 2.13,-0.979 0.608,-0.398 1.105,-0.759 1.105,-0.803 0,-0.145 -1.367,0.62 -2.084,1.165 -1.116,0.848 -1.117,0.845 -1.057,-8.801 l 0.056,-8.923 3.154,-0.059 3.153,-0.059 0.73,0.729 c 0.705,0.705 1.005,0.77 0.463,0.099 -0.746,-0.921 -1.21,-1.029 -4.44,-1.029 -2.65,0 -3.14,0.051 -3.25,0.336 m -9.398,0.529 c -1.703,1.779 -0.527,6.947 1.865,8.196 0.987,0.517 0.936,0.329 -0.089,-0.321 -2.396,-1.519 -3.231,-6.219 -1.409,-7.921 0.357,-0.334 0.561,-0.606 0.453,-0.606 -0.107,0 -0.476,0.293 -0.82,0.652 m -2.64,0.601 c -0.361,1.342 -0.207,21.051 0.169,21.619 l 0.283,0.426 -0.175,-0.426 c -0.258,-0.627 -0.345,-20.192 -0.095,-21.361 0.262,-1.23 0.13,-1.417 -0.182,-0.258 m 20.1,5.802 c 0,2.922 0.062,5.091 0.139,4.82 0.193,-0.687 0.209,-9.586 0.018,-9.887 -0.086,-0.135 -0.157,2.145 -0.157,5.067 m 14.569,-2.364 c -0.129,0.241 -0.193,0.647 -0.143,0.905 0.079,0.406 0.095,0.394 0.12,-0.092 0.053,-1.025 0.2,-1.047 6.65,-0.986 l 6.038,0.056 -0.042,0.745 -0.042,0.744 0.185,-0.739 c 0.274,-1.099 0.449,-1.069 -6.276,-1.069 -6.091,0 -6.263,0.012 -6.49,0.436 m 55.891,-0.276 c -0.053,0.087 1.449,0.163 3.339,0.169 2.072,0.005 3.098,-0.053 2.584,-0.148 -1.128,-0.208 -5.799,-0.225 -5.923,-0.021 m 6.881,0.337 c 0,0.055 0.309,0.207 0.686,0.339 0.378,0.132 0.593,0.152 0.479,0.045 -0.242,-0.227 -1.165,-0.531 -1.165,-0.384 m 1.489,0.633 c 0,0.037 0.311,0.348 0.692,0.692 L 235,88.83 234.375,88.138 c -0.582,-0.644 -0.758,-0.789 -0.758,-0.625 m -8.91,0.891 c -0.018,0.234 -0.081,0.665 -0.141,0.958 l -0.11,0.532 0.228,-0.522 c 0.125,-0.287 0.189,-0.718 0.141,-0.958 -0.084,-0.424 -0.087,-0.424 -0.118,-0.01 m -43.124,0.613 c -0.139,0.554 -0.152,0.557 -2.237,0.557 -2.172,0 -2.576,0.177 -2.521,1.104 0.01,0.153 0.113,0.016 0.231,-0.306 0.213,-0.584 0.215,-0.585 2.329,-0.585 2.09,0 2.117,-0.006 2.328,-0.561 0.118,-0.309 0.168,-0.608 0.112,-0.664 -0.056,-0.056 -0.165,0.149 -0.242,0.455 m 53.636,0.788 c 0.172,0.488 0.331,1.473 0.352,2.19 l 0.04,1.303 0.08,-1.17 c 0.078,-1.152 -0.261,-2.886 -0.607,-3.1 -0.098,-0.06 -0.037,0.29 0.135,0.777 m -66.357,-0.177 c 0.055,0.087 1.003,0.159 2.108,0.159 h 2.009 l 0.013,0.585 0.014,0.585 0.204,-0.509 c 0.112,-0.28 0.146,-0.568 0.076,-0.638 -0.189,-0.191 -4.54,-0.369 -4.424,-0.182 m 59.303,0.259 c -0.066,0.171 -0.071,0.435 -0.01,0.585 0.06,0.15 0.117,0.063 0.126,-0.194 0.015,-0.402 0.159,-0.479 1.028,-0.547 l 1.01,-0.08 -1.017,-0.038 c -0.725,-0.027 -1.052,0.051 -1.137,0.274 m 2.935,0.432 c 0.892,1.119 0.721,2.74 -0.408,3.868 -0.433,0.433 -0.566,0.654 -0.313,0.519 1.423,-0.762 1.964,-3.349 0.905,-4.328 -0.389,-0.36 -0.436,-0.375 -0.184,-0.059 m -6.924,0.559 c -0.178,0.887 -0.006,1.058 0.186,0.186 0.08,-0.368 0.102,-0.713 0.048,-0.767 -0.054,-0.055 -0.16,0.207 -0.234,0.581 m -33.644,-0.239 c -0.548,0.139 -0.482,0.165 0.464,0.187 0.964,0.022 1.114,0.085 1.194,0.504 0.079,0.41 0.097,0.395 0.121,-0.107 0.019,-0.376 -0.078,-0.585 -0.272,-0.585 -0.166,0 -0.43,-0.036 -0.585,-0.08 -0.156,-0.045 -0.571,-0.008 -0.922,0.081 m 9.255,0.008 c -0.594,0.118 -0.446,0.154 0.727,0.176 0.81,0.015 1.432,-0.006 1.383,-0.048 -0.221,-0.189 -1.434,-0.263 -2.11,-0.128 m 14.468,0.003 c -0.568,0.111 -0.37,0.152 0.834,0.173 0.868,0.015 1.538,-0.006 1.489,-0.048 -0.211,-0.182 -1.64,-0.259 -2.323,-0.125 m 28.298,-0.02 c -0.377,0.114 -0.139,0.166 0.823,0.18 0.744,0.01 1.319,-0.011 1.276,-0.048 -0.213,-0.184 -1.631,-0.273 -2.099,-0.132 m -53.957,0.824 c -0.457,0.331 -0.97,0.786 -1.141,1.011 -0.171,0.224 -0.028,0.154 0.319,-0.156 0.347,-0.31 0.965,-0.764 1.375,-1.01 0.41,-0.245 0.639,-0.447 0.511,-0.447 -0.129,-0.001 -0.608,0.27 -1.064,0.602 m 56.869,-0.188 c 0.373,0.227 0.783,0.61 0.912,0.85 0.353,0.66 0.814,0.527 1.176,-0.34 0.179,-0.428 0.285,-0.818 0.235,-0.867 -0.049,-0.049 -0.213,0.252 -0.364,0.671 -0.34,0.938 -0.395,0.938 -1.318,0.016 -0.409,-0.41 -0.874,-0.745 -1.032,-0.744 -0.158,0 0.018,0.187 0.391,0.414 m 10.748,1.217 c 0.097,0.9 0.225,1.685 0.284,1.745 0.165,0.165 -0.147,-3.034 -0.314,-3.22 -0.08,-0.089 -0.066,0.575 0.03,1.475 m 4.886,-0.224 c -0.927,1.88 -0.765,1.933 0.204,0.067 0.42,-0.811 0.703,-1.475 0.627,-1.475 -0.075,0 -0.449,0.634 -0.831,1.408 m 4.496,-1.274 c 0.074,0.074 0.037,0.338 -0.082,0.586 -0.211,0.438 -0.208,0.439 0.114,0.037 0.393,-0.491 0.422,-0.757 0.082,-0.757 -0.136,0 -0.188,0.061 -0.114,0.134 m -88.973,0.398 c -0.018,0.234 -0.081,0.665 -0.142,0.957 l -0.109,0.532 0.228,-0.522 c 0.125,-0.287 0.189,-0.718 0.141,-0.957 -0.084,-0.424 -0.087,-0.425 -0.118,-0.01 m 51.164,0.304 c -0.348,1.798 -0.379,2.027 -0.259,1.914 0.167,-0.158 0.588,-2.365 0.473,-2.48 -0.048,-0.048 -0.144,0.206 -0.214,0.566 m -30.89,-0.204 c -0.608,0.246 -2.448,2.098 -2.919,2.937 -0.584,1.044 -0.277,0.819 0.468,-0.341 0.639,-0.997 2.121,-2.377 2.551,-2.377 0.117,0 0.272,-0.096 0.344,-0.213 0.152,-0.245 0.147,-0.245 -0.444,-0.006 m 43.423,0.185 c -0.234,0.208 -0.711,0.708 -1.061,1.11 -0.35,0.403 -0.134,0.258 0.479,-0.323 1.007,-0.954 1.223,-1.193 1.061,-1.171 -0.029,0.004 -0.245,0.177 -0.479,0.384 m 10,0.247 c -0.081,0.368 -0.102,0.713 -0.048,0.767 0.054,0.054 0.16,-0.207 0.234,-0.581 0.178,-0.887 0.006,-1.059 -0.186,-0.186 M 172.69,91.96 c -0.072,0.268 -0.123,0.678 -0.113,0.912 0.011,0.234 0.107,0.052 0.214,-0.404 0.207,-0.884 0.118,-1.329 -0.101,-0.508 m 31.626,0.131 c 0.723,0.886 0.867,1.452 0.744,2.928 -0.054,0.651 -0.019,1.048 0.078,0.895 0.581,-0.916 0.06,-3.272 -0.907,-4.106 -0.409,-0.353 -0.394,-0.304 0.085,0.283 m -67.676,6.125 0.062,6.301 0.84,0.726 0.839,0.725 3.203,-0.058 3.203,-0.059 0.06,-3.617 c 0.08,-4.79 -0.667,-6.551 -3.375,-7.963 -1.061,-0.553 -1.084,-0.413 -0.036,0.213 2.725,1.627 3.12,2.535 3.208,7.378 l 0.071,3.883 h -3.164 -3.163 l -0.736,-0.615 -0.737,-0.615 -0.063,-6.194 c -0.034,-3.406 0.016,-6.193 0.111,-6.193 0.095,0 0.511,0.23 0.926,0.512 0.867,0.589 2.343,1.241 2.486,1.099 0.087,-0.088 -1.332,-0.76 -1.604,-0.76 -0.063,0 -0.428,-0.24 -0.811,-0.532 -1.425,-1.087 -1.389,-1.243 -1.32,5.769 M 252.6,92.234 c 0.002,0.234 0.077,0.713 0.166,1.064 0.146,0.573 0.163,0.584 0.166,0.106 0.003,-0.292 -0.072,-0.771 -0.166,-1.064 -0.134,-0.416 -0.17,-0.439 -0.166,-0.106 m -65.98,0.472 c -0.019,0.543 0.046,0.658 0.313,0.556 0.185,-0.072 0.244,-0.188 0.131,-0.26 -0.114,-0.071 -0.254,-0.321 -0.313,-0.555 -0.071,-0.285 -0.114,-0.199 -0.131,0.259 m 5.189,0.06 c -0.081,0.368 -0.099,0.717 -0.041,0.775 0.059,0.059 0.172,-0.194 0.253,-0.562 0.081,-0.368 0.099,-0.717 0.041,-0.775 -0.059,-0.059 -0.173,0.194 -0.253,0.562 m 31.914,0.213 c -0.08,0.368 -0.102,0.713 -0.048,0.767 0.054,0.054 0.16,-0.207 0.235,-0.581 0.177,-0.887 0.005,-1.059 -0.187,-0.186 m -40.293,0.212 c -0.017,0.176 -0.085,0.559 -0.15,0.852 -0.102,0.459 -0.085,0.48 0.124,0.153 0.132,-0.208 0.2,-0.591 0.15,-0.851 -0.051,-0.26 -0.106,-0.329 -0.124,-0.154 m 25.738,0.266 c -0.815,1.316 -0.932,1.526 -0.738,1.33 0.488,-0.493 1.365,-1.808 1.206,-1.808 -0.094,0 -0.305,0.215 -0.468,0.478 m -33.092,0.491 c -0.08,0.427 -0.103,0.819 -0.051,0.871 0.052,0.052 0.16,-0.255 0.24,-0.682 0.08,-0.427 0.103,-0.819 0.051,-0.871 -0.052,-0.052 -0.16,0.255 -0.24,0.682 m 73.848,-0.286 c -0.072,0.268 -0.123,0.678 -0.112,0.912 0.01,0.235 0.106,0.053 0.213,-0.404 0.207,-0.884 0.119,-1.329 -0.101,-0.508 m -48.719,-0.045 c 0.135,0.176 0.289,0.606 0.34,0.957 l 0.093,0.639 0.032,-0.666 c 0.02,-0.41 -0.11,-0.777 -0.34,-0.957 -0.324,-0.254 -0.34,-0.251 -0.125,0.027 m 12.016,0.22 c -0.276,0.23 -0.401,0.418 -0.278,0.418 0.123,0 0.287,-0.102 0.364,-0.227 0.077,-0.126 0.346,-0.311 0.598,-0.412 0.264,-0.107 0.322,-0.187 0.138,-0.191 -0.176,-0.004 -0.546,0.182 -0.822,0.412 m 30.449,-0.073 c 0.205,0.053 0.54,0.053 0.745,0 0.205,-0.054 0.037,-0.098 -0.372,-0.098 -0.41,0 -0.578,0.044 -0.373,0.098 m -45.693,0.745 c -0.583,0.693 -1.042,1.645 -0.875,1.813 0.051,0.051 0.16,-0.13 0.241,-0.402 0.081,-0.272 0.429,-0.854 0.774,-1.292 0.763,-0.972 0.655,-1.064 -0.14,-0.119 m 44.295,0.185 c -0.693,0.81 -1.191,1.835 -0.763,1.57 0.106,-0.065 0.193,-0.24 0.193,-0.387 0,-0.148 0.343,-0.669 0.761,-1.158 0.419,-0.489 0.714,-0.889 0.655,-0.889 -0.058,0 -0.439,0.389 -0.846,0.864 m 21.558,-0.013 c -0.239,0.468 -0.387,0.851 -0.328,0.851 0.059,0 0.302,-0.383 0.541,-0.851 0.238,-0.468 0.386,-0.851 0.327,-0.851 -0.058,0 -0.301,0.383 -0.54,0.851 m -74.362,-0.42 c -0.284,0.126 -0.107,0.146 0.532,0.062 0.527,-0.07 0.997,-0.161 1.046,-0.204 0.185,-0.16 -1.172,-0.038 -1.578,0.142 m 37.766,0.42 c 0,0.351 0.079,0.638 0.176,0.638 0.097,0 0.134,-0.287 0.082,-0.638 -0.051,-0.351 -0.13,-0.638 -0.176,-0.638 -0.045,0 -0.082,0.287 -0.082,0.638 m -55.08,-0.107 c -0.018,0.235 -0.081,0.665 -0.142,0.958 l -0.109,0.532 0.228,-0.522 c 0.125,-0.287 0.189,-0.718 0.141,-0.958 -0.084,-0.424 -0.087,-0.424 -0.118,-0.01 m 51.135,0.479 c -0.074,0.439 -0.179,0.99 -0.233,1.224 -0.075,0.329 -0.054,0.353 0.097,0.106 0.217,-0.356 0.525,-2.128 0.37,-2.128 -0.055,0 -0.16,0.359 -0.234,0.798 m -35.118,-0.126 -0.405,0.458 0.585,-0.377 c 0.603,-0.388 0.717,-0.54 0.405,-0.54 -0.099,0 -0.362,0.206 -0.585,0.459 m 23.738,0.466 c -0.49,0.923 -0.466,1.643 0.052,1.611 0.214,-0.013 0.215,-0.04 0.007,-0.124 -0.414,-0.167 -0.315,-0.79 0.26,-1.638 0.289,-0.425 0.446,-0.774 0.348,-0.774 -0.097,0 -0.397,0.416 -0.667,0.925 m -57.588,-0.172 c -0.369,1.059 -1.296,1.964 -2.743,2.676 -1.572,0.774 -1.724,1.055 -0.208,0.384 1.672,-0.739 3.509,-2.686 3.255,-3.449 -0.045,-0.135 -0.182,0.04 -0.304,0.389 m 98.807,0.524 c 0.067,0.643 0.156,1.21 0.199,1.259 0.149,0.17 0.033,-1.37 -0.143,-1.898 -0.114,-0.343 -0.134,-0.117 -0.056,0.639 m -70.256,0 c -0.08,0.367 -0.099,0.716 -0.04,0.775 0.058,0.058 0.172,-0.195 0.253,-0.563 0.081,-0.367 0.099,-0.716 0.041,-0.775 -0.059,-0.058 -0.173,0.195 -0.254,0.563 m 51.185,0.269 c -0.606,0.747 -0.63,0.81 -0.14,0.369 0.509,-0.458 1.113,-1.284 0.931,-1.273 -0.033,0.002 -0.39,0.409 -0.791,0.904 m 11.751,0.156 c 0,0.644 0.04,0.907 0.089,0.585 0.049,-0.321 0.049,-0.848 0,-1.17 -0.049,-0.322 -0.089,-0.058 -0.089,0.585 m -70.17,-0.213 c -0.08,0.368 -0.102,0.714 -0.048,0.768 0.054,0.054 0.16,-0.208 0.234,-0.581 0.178,-0.887 0.006,-1.059 -0.186,-0.187 m 81.002,0 c -0.007,0.41 0.064,1.176 0.158,1.703 0.23,1.293 0.248,0.078 0.02,-1.383 -0.135,-0.87 -0.168,-0.928 -0.178,-0.32 m -63.425,0.237 c -0.131,0.376 -0.201,0.721 -0.155,0.766 0.045,0.046 0.19,-0.225 0.321,-0.601 0.131,-0.376 0.201,-0.721 0.155,-0.766 -0.045,-0.046 -0.19,0.225 -0.321,0.601 m 44.256,-0.201 c -0.013,0.195 -0.079,0.531 -0.147,0.745 -0.116,0.369 -0.109,0.37 0.121,0.011 0.134,-0.209 0.2,-0.544 0.147,-0.745 -0.086,-0.329 -0.098,-0.331 -0.121,-0.011 m -18.378,0.657 -0.376,0.69 0.429,-0.502 c 0.365,-0.427 0.56,-0.884 0.375,-0.879 -0.029,10e-4 -0.222,0.312 -0.428,0.691 m 30.295,-0.373 c -0.018,0.234 -0.081,0.664 -0.142,0.957 l -0.109,0.532 0.228,-0.522 c 0.125,-0.287 0.189,-0.718 0.141,-0.957 -0.084,-0.425 -0.087,-0.425 -0.118,-0.01 m -41.809,0.221 c -0.072,0.19 -0.124,0.505 -0.114,0.7 0.01,0.195 0.103,0.073 0.206,-0.272 0.2,-0.672 0.129,-1.004 -0.092,-0.428 m 6.57,-0.001 c -0.845,0.293 -0.846,0.294 -0.106,0.174 0.409,-0.066 0.835,-0.206 0.946,-0.31 0.249,-0.234 0.217,-0.229 -0.84,0.136 m -14.894,0.099 c -0.268,0.115 -0.307,0.183 -0.106,0.183 0.175,0 0.511,-0.083 0.745,-0.183 0.268,-0.116 0.307,-0.183 0.106,-0.183 -0.176,0 -0.511,0.082 -0.745,0.183 m -27.659,0.638 c -0.081,0.368 -0.103,0.713 -0.049,0.767 0.055,0.055 0.16,-0.207 0.235,-0.581 0.177,-0.887 0.005,-1.059 -0.186,-0.186 m 90.532,0.638 c -0.355,0.702 -0.597,1.277 -0.538,1.277 0.058,0 0.396,-0.575 0.75,-1.277 0.355,-0.702 0.597,-1.276 0.538,-1.276 -0.058,0 -0.396,0.574 -0.75,1.276 M 232.375,97.23 c -0.885,0.494 -1.042,0.643 -0.534,0.51 0.36,-0.094 1.596,-0.932 1.35,-0.915 -0.058,0.005 -0.426,0.186 -0.816,0.405 m -49.916,0.548 c -0.08,0.427 -0.103,0.819 -0.051,0.871 0.052,0.052 0.16,-0.255 0.24,-0.682 0.08,-0.427 0.103,-0.819 0.051,-0.871 -0.052,-0.052 -0.16,0.255 -0.24,0.682 m 40.333,-0.438 c -0.018,0.234 -0.081,0.665 -0.141,0.958 l -0.11,0.532 0.228,-0.522 c 0.125,-0.287 0.189,-0.718 0.141,-0.958 -0.084,-0.424 -0.087,-0.424 -0.118,-0.01 m -47.552,0.464 c -0.277,1.395 -0.395,2.295 -0.288,2.196 0.154,-0.143 0.602,-2.602 0.493,-2.711 -0.047,-0.047 -0.139,0.185 -0.205,0.515 m 17.43,1.185 c -0.074,0.966 -0.058,2.017 0.034,2.336 0.11,0.38 0.177,-0.224 0.195,-1.755 0.031,-2.783 -0.046,-2.977 -0.229,-0.581 m 44.237,-0.593 c -0.083,0.659 -0.102,1.246 -0.044,1.304 0.059,0.059 0.174,-0.432 0.256,-1.091 0.083,-0.659 0.102,-1.246 0.044,-1.304 -0.059,-0.059 -0.174,0.432 -0.256,1.091 m -29.624,0.115 c 0,0.409 0.044,0.577 0.098,0.372 0.053,-0.205 0.053,-0.54 0,-0.745 -0.054,-0.204 -0.098,-0.037 -0.098,0.373 m 22.823,-0.426 c -0.542,0.233 0.018,0.233 0.745,0 0.428,-0.137 0.449,-0.171 0.106,-0.176 -0.234,-0.004 -0.617,0.076 -0.851,0.176 m -3.68,0.468 c -0.141,0.141 -0.244,0.5 -0.231,0.798 0.024,0.503 0.035,0.496 0.161,-0.096 0.126,-0.594 0.216,-0.647 1.305,-0.763 l 1.169,-0.125 -1.075,-0.034 c -0.598,-0.02 -1.187,0.078 -1.329,0.22 m 22.404,0.383 c -0.081,0.368 -0.103,0.713 -0.049,0.767 0.055,0.055 0.16,-0.207 0.235,-0.581 0.177,-0.887 0.005,-1.058 -0.186,-0.186 m -94.957,0.091 c -1.006,0.712 -1.131,0.912 -0.231,0.372 1.287,-0.773 1.305,-0.743 1.221,2.07 -0.042,1.393 -0.005,2.423 0.081,2.287 0.188,-0.296 0.216,-4.432 0.033,-4.909 -0.166,-0.432 -0.259,-0.417 -1.104,0.18 M 171.2,98.981 c -0.072,0.268 -0.122,0.679 -0.112,0.913 0.01,0.234 0.106,0.052 0.213,-0.405 0.208,-0.884 0.119,-1.329 -0.101,-0.508 m 69.39,0.328 c -0.052,0.438 -0.027,1.037 0.056,1.329 0.102,0.362 0.156,0.105 0.167,-0.798 0.018,-1.494 -0.081,-1.729 -0.223,-0.531 m 13.052,-0.142 c 0.014,0.399 0.103,1.014 0.199,1.365 0.114,0.42 0.132,0.201 0.054,-0.638 -0.131,-1.407 -0.292,-1.872 -0.253,-0.727 m -67.791,0.195 c -0.081,0.368 -0.099,0.716 -0.04,0.775 0.058,0.058 0.172,-0.195 0.253,-0.563 0.081,-0.367 0.099,-0.716 0.04,-0.775 -0.058,-0.058 -0.172,0.195 -0.253,0.563 m 13.404,-0.213 c -0.884,0.225 -0.014,0.235 1.064,0.012 0.716,-0.148 0.75,-0.176 0.213,-0.175 -0.351,0 -0.926,0.074 -1.277,0.163 m 23.006,0.665 c -0.178,0.887 -0.006,1.059 0.186,0.186 0.081,-0.368 0.102,-0.713 0.048,-0.767 -0.054,-0.054 -0.16,0.207 -0.234,0.581 M 196.383,100 c 0,0.351 0.037,0.638 0.082,0.638 0.045,0 0.125,-0.287 0.176,-0.638 0.052,-0.351 0.015,-0.638 -0.082,-0.638 -0.097,0 -0.176,0.287 -0.176,0.638 m 14.61,-0.496 c -0.214,0.214 -0.164,0.987 0.087,1.347 0.164,0.236 0.185,0.132 0.08,-0.399 -0.099,-0.5 -0.054,-0.773 0.147,-0.901 0.159,-0.1 0.185,-0.184 0.058,-0.186 -0.127,-0.002 -0.294,0.061 -0.372,0.139 m -59.602,0.829 c -0.581,0.288 -1.155,0.628 -1.277,0.756 -0.189,0.199 2.388,-0.995 2.634,-1.221 0.251,-0.229 -0.422,0.001 -1.357,0.465 m 97.034,0.503 c -0.349,1.798 -0.38,2.027 -0.26,1.914 0.167,-0.158 0.588,-2.365 0.473,-2.481 -0.048,-0.047 -0.144,0.207 -0.213,0.567 m 12.084,0.068 c -0.194,0.381 -0.635,1.203 -0.979,1.827 -0.345,0.625 -0.589,1.175 -0.541,1.222 0.047,0.048 0.54,-0.774 1.095,-1.827 0.555,-1.052 0.957,-1.913 0.893,-1.913 -0.063,0 -0.274,0.311 -0.468,0.691 m -85.935,0.16 c -0.08,0.368 -0.099,0.716 -0.04,0.775 0.058,0.058 0.172,-0.195 0.253,-0.562 0.081,-0.368 0.099,-0.717 0.041,-0.776 -0.059,-0.058 -0.173,0.195 -0.254,0.563 m 62.281,-0.107 c -0.002,0.352 0.073,0.878 0.166,1.171 l 0.171,0.532 -0.004,-0.532 c -0.003,-0.293 -0.077,-0.819 -0.167,-1.171 l -0.162,-0.638 -0.004,0.638 m -51.39,0.188 c -0.08,0.209 -0.14,0.539 -0.132,0.734 0.009,0.235 0.082,0.182 0.218,-0.159 0.113,-0.282 0.173,-0.612 0.132,-0.734 -0.04,-0.121 -0.138,-0.049 -0.218,0.159 m 40.306,0.025 c -0.018,0.234 -0.081,0.665 -0.142,0.958 l -0.109,0.532 0.228,-0.522 c 0.125,-0.287 0.189,-0.718 0.141,-0.958 -0.084,-0.424 -0.087,-0.424 -0.118,-0.01 m -28.986,0.264 c 0.499,0.955 2.662,1.453 3.96,0.912 0.26,-0.109 -0.044,-0.133 -0.779,-0.064 -1.536,0.145 -2.208,-0.029 -2.886,-0.748 -0.461,-0.489 -0.506,-0.505 -0.295,-0.1 m -48.245,0.853 c -1.056,1.032 -1.895,2.725 -1.658,3.343 0.366,0.952 7.023,0.316 7.58,-0.725 0.358,-0.669 0.258,-0.646 -0.505,0.116 l -0.723,0.724 h -3.106 c -2.819,0 -3.106,-0.035 -3.102,-0.373 0.009,-0.756 0.844,-2.186 1.826,-3.127 0.556,-0.533 0.946,-0.968 0.866,-0.968 -0.08,0 -0.61,0.454 -1.178,1.01 m 22.124,-0.691 c -0.017,0.234 -0.081,0.665 -0.141,0.957 l -0.109,0.532 0.227,-0.522 c 0.126,-0.287 0.189,-0.718 0.142,-0.957 -0.085,-0.425 -0.088,-0.425 -0.119,-0.01 m 32.049,0.034 c 0.402,0.163 0.364,2.625 -0.041,2.625 -0.168,0 -0.365,0.095 -0.436,0.21 -0.083,0.134 0.048,0.145 0.36,0.03 0.668,-0.246 0.885,-3.017 0.233,-2.989 -0.223,0.01 -0.272,0.062 -0.116,0.124 m 4.738,0.246 c -0.01,0.652 1.689,2.805 2.215,2.805 0.12,0 -0.151,-0.305 -0.602,-0.677 -0.452,-0.372 -0.998,-1.066 -1.214,-1.542 -0.217,-0.477 -0.396,-0.74 -0.399,-0.586 m -25.936,0.252 c -0.017,0.175 -0.085,0.558 -0.15,0.851 -0.102,0.459 -0.085,0.48 0.124,0.153 0.132,-0.208 0.2,-0.591 0.15,-0.851 -0.051,-0.26 -0.106,-0.329 -0.124,-0.153 m 72.574,0.212 c 0.002,0.293 0.077,0.82 0.166,1.171 l 0.163,0.638 0.004,-0.638 c 0.002,-0.351 -0.073,-0.878 -0.167,-1.171 l -0.17,-0.531 0.004,0.531 m -41.607,0.054 c 0.119,0.197 2.112,0.172 2.837,-0.035 0.315,-0.09 -0.175,-0.147 -1.201,-0.139 -0.953,0.008 -1.689,0.086 -1.636,0.174 m 9.246,0.053 c -0.017,0.234 -0.081,0.665 -0.141,0.957 l -0.11,0.532 0.228,-0.522 c 0.126,-0.287 0.189,-0.718 0.142,-0.957 -0.085,-0.424 -0.088,-0.425 -0.119,-0.01 m -47.553,0.434 c -0.073,0.19 -0.124,0.553 -0.113,0.807 0.013,0.326 0.079,0.253 0.225,-0.254 0.212,-0.736 0.124,-1.169 -0.112,-0.553 m 19.016,-0.23 c 0,0.306 0.885,1.391 1.132,1.388 0.165,-0.002 0.176,-0.057 0.031,-0.159 -0.121,-0.086 -0.432,-0.433 -0.691,-0.77 -0.259,-0.338 -0.472,-0.544 -0.472,-0.459 m -8.161,0.585 c -0.072,0.268 -0.122,0.679 -0.112,0.913 0.01,0.234 0.106,0.052 0.213,-0.405 0.208,-0.884 0.119,-1.329 -0.101,-0.508 m 52.545,0.211 c 0.412,0.797 0.669,1.076 1.298,1.413 0.771,0.413 0.854,0.273 0.108,-0.182 -0.385,-0.235 -0.897,-0.761 -1.138,-1.169 -0.549,-0.931 -0.74,-0.975 -0.268,-0.062 m -12.35,0.288 c -0.081,0.427 -0.104,0.819 -0.051,0.871 0.052,0.052 0.16,-0.255 0.24,-0.682 0.08,-0.427 0.103,-0.819 0.051,-0.871 -0.052,-0.052 -0.16,0.255 -0.24,0.682 m 19.031,-0.012 c -0.268,0.285 -0.88,0.712 -1.361,0.95 -0.48,0.238 -0.714,0.433 -0.518,0.433 0.196,0 0.795,-0.335 1.332,-0.744 1.192,-0.91 1.199,-0.91 1.132,-0.053 l -0.054,0.691 1.383,0.015 1.383,0.014 -1.315,-0.077 -1.315,-0.077 0.115,-0.708 c 0.149,-0.917 -0.169,-1.097 -0.782,-0.444 m 3.537,0.133 c -0.178,0.887 -0.006,1.059 0.186,0.187 0.081,-0.368 0.102,-0.714 0.048,-0.768 -0.054,-0.054 -0.16,0.208 -0.234,0.581 m -77.66,0.213 c -0.073,0.366 -0.133,0.752 -0.133,0.859 0,0.317 3.892,0.121 3.956,-0.199 0.03,-0.149 0.006,-0.173 -0.054,-0.053 -0.06,0.122 -0.883,0.218 -1.885,0.218 h -1.777 l 0.12,-0.745 c 0.15,-0.923 -0.045,-0.992 -0.227,-0.08 m 10.896,0.334 c -0.072,0.256 -0.078,0.519 -0.013,0.585 0.18,0.179 3.625,0.142 3.739,-0.041 0.055,-0.088 -0.698,-0.129 -1.673,-0.091 -1.714,0.066 -1.774,0.052 -1.846,-0.426 l -0.075,-0.494 -0.132,0.467 m 13.652,-0.054 c 0,0.195 1.246,0.758 1.638,0.739 0.255,-0.012 0.201,-0.074 -0.161,-0.183 -0.3,-0.091 -0.754,-0.278 -1.011,-0.415 -0.256,-0.137 -0.466,-0.201 -0.466,-0.141 m 26.62,0.279 c -0.024,0.466 0.025,0.477 1.944,0.435 l 1.968,-0.044 -1.848,-0.071 c -1.528,-0.058 -1.864,-0.134 -1.943,-0.435 -0.07,-0.264 -0.103,-0.233 -0.121,0.115 m 37.111,0.178 c -0.199,0.302 -0.312,0.599 -0.253,0.658 0.059,0.059 0.261,-0.189 0.448,-0.551 0.414,-0.8 0.3,-0.863 -0.195,-0.107 m -101.936,0.383 c -0.469,1.871 -2.402,2.683 -6.381,2.683 -3.567,0 -3.499,-0.051 -3.499,2.688 v 2.019 l -0.798,-0.066 -0.798,-0.066 -0.061,-2.173 -0.06,-2.172 -0.684,-0.111 c -1.112,-0.179 -6.731,-0.239 -6.462,-0.069 0.135,0.086 1.602,0.158 3.26,0.16 3.963,0.004 3.688,-0.172 3.688,2.362 0,2.04 0.015,2.105 0.51,2.229 1.371,0.344 1.505,0.171 1.573,-2.023 0.082,-2.674 -0.071,-2.565 3.588,-2.565 3.465,0 4.04,-0.15 5.268,-1.379 0.755,-0.755 1.314,-1.758 1.098,-1.973 -0.056,-0.056 -0.165,0.149 -0.242,0.456 m 44.269,-0.295 c -0.589,0.149 -0.597,0.164 -0.107,0.184 0.293,0.012 0.676,-0.071 0.851,-0.184 0.362,-0.234 0.175,-0.234 -0.744,0 m 14.468,0 c -0.589,0.149 -0.597,0.164 -0.107,0.184 0.293,0.012 0.676,-0.071 0.851,-0.184 0.363,-0.234 0.175,-0.234 -0.744,0 m -17.824,0.366 c 0.378,0.047 1.048,0.048 1.489,0.002 0.442,-0.046 0.133,-0.085 -0.687,-0.086 -0.819,-0.001 -1.18,0.037 -0.802,0.084 m 14.468,0 c 0.378,0.047 1.048,0.048 1.489,0.002 0.442,-0.046 0.133,-0.085 -0.686,-0.086 -0.82,-0.001 -1.181,0.037 -0.803,0.084 m 28.409,-0.001 c 0.322,0.049 0.848,0.049 1.17,0 0.322,-0.049 0.059,-0.089 -0.585,-0.089 -0.644,0 -0.907,0.04 -0.585,0.089 m -105.153,0.319 c -0.011,0.259 1.304,1.66 1.778,1.894 0.247,0.122 0.145,-0.027 -0.227,-0.331 -0.372,-0.304 -0.872,-0.814 -1.11,-1.134 -0.239,-0.32 -0.437,-0.513 -0.441,-0.429 m 118.174,1.461 c -0.078,0.126 -0.443,0.413 -0.81,0.637 -0.368,0.224 -0.55,0.408 -0.406,0.408 0.272,10e-4 1.766,-1.258 1.505,-1.269 -0.08,-0.004 -0.211,0.097 -0.289,0.224 m -3.854,2.535 c 0,0.878 0.038,1.237 0.084,0.798 0.046,-0.438 0.046,-1.157 0,-1.595 -0.046,-0.439 -0.084,-0.08 -0.084,0.797 m 0.942,-1.338 c 0.264,0.05 0.647,0.049 0.851,-0.005 0.203,-0.053 -0.013,-0.095 -0.481,-0.092 -0.468,0.002 -0.635,0.046 -0.37,0.097 m 5.605,0.614 c -0.264,0.303 -0.435,0.596 -0.381,0.65 0.055,0.054 0.308,-0.194 0.562,-0.552 0.567,-0.795 0.47,-0.847 -0.181,-0.098 m -1.406,1.283 c -0.382,0.325 -0.46,0.455 -0.195,0.323 0.39,-0.194 1.122,-0.894 0.913,-0.874 -0.044,0.004 -0.366,0.252 -0.718,0.551 m -4.202,1.174 c 0.411,0.116 0.973,0.117 1.383,0.004 0.596,-0.164 0.5,-0.191 -0.691,-0.194 -1.194,-0.003 -1.288,0.023 -0.692,0.19"
       stroke="none"
       fill="#8ca49c"
       fill-rule="evenodd" />
    <path
       id="path3"
       d="m 138.865,84.823 c -0.55,0.55 0.33,2.739 1.445,3.589 2.074,1.582 3.437,0.323 2.036,-1.881 -0.823,-1.296 -2.882,-2.307 -3.481,-1.708 m 12.676,3.438 c -1.971,0.587 -3.865,4.292 -2.193,4.292 1.845,0 3.516,-1.605 3.67,-3.526 0.073,-0.903 -0.324,-1.108 -1.477,-0.766 m -12.743,9.937 c -0.664,1.73 1.722,4.138 3.915,3.952 0.719,-0.061 -0.005,-2.394 -1.043,-3.359 -0.942,-0.876 -2.63,-1.225 -2.872,-0.593"
       stroke="none"
       fill="#34b984"
       fill-rule="evenodd" />
    <path
       id="path4"
       d="m 145.957,79.781 c 8.469,0.123 8.329,0.102 9.663,1.423 1.411,1.396 1.391,1.217 1.397,12.665 0.003,6.59 -0.075,10.568 -0.214,10.934 -0.3,0.787 -0.072,0.937 0.262,0.173 0.373,-0.85 0.524,-18.946 0.176,-20.933 -0.32,-1.825 -1.264,-3.145 -2.796,-3.908 l -1.124,-0.561 -7.565,0.047 -7.565,0.047 7.766,0.113 m -9.256,0.553 c -2.475,1.679 -2.446,1.515 -2.446,13.602 0,11.542 -0.013,11.43 1.598,12.995 1.227,1.192 1.982,1.402 5.477,1.526 l 3.138,0.111 v 1.95 c 0,2.209 0.133,2.461 1.304,2.461 1.249,0 1.462,-0.374 1.462,-2.569 v -1.899 h 2.311 c 3.859,0 5.508,-0.539 6.643,-2.169 0.418,-0.6 0.356,-0.568 -0.419,0.219 -1.359,1.377 -1.881,1.524 -5.417,1.524 -3.659,0 -3.506,-0.109 -3.588,2.565 -0.068,2.194 -0.202,2.367 -1.573,2.023 -0.495,-0.124 -0.51,-0.189 -0.51,-2.229 0,-2.533 0.268,-2.359 -3.645,-2.359 -3.755,0 -4.823,-0.473 -6.002,-2.659 -0.719,-1.332 -0.72,-21.644 -0.002,-22.979 0.562,-1.044 1.222,-1.676 2.321,-2.224 0.461,-0.23 0.684,-0.423 0.496,-0.427 -0.189,-0.005 -0.705,0.237 -1.148,0.538 m 1.138,2.27 c -0.87,0.74 -1.034,1.265 -0.993,3.18 l 0.037,1.769 0.133,-1.915 c 0.218,-3.152 0.419,-3.298 4.559,-3.298 h 2.893 v 5.54 5.539 l -0.479,-0.255 c -0.434,-0.231 -0.451,-0.222 -0.186,0.099 0.826,1.002 0.887,0.606 0.828,-5.337 l -0.057,-5.692 -3.085,-0.055 c -2.936,-0.053 -3.112,-0.033 -3.65,0.425 m 9.111,-0.334 c -0.245,0.245 -0.167,17.902 0.08,18.055 0.123,0.075 0.529,-0.097 0.905,-0.382 0.375,-0.286 1.089,-0.727 1.586,-0.98 0.907,-0.462 1.229,-0.773 0.532,-0.513 -0.501,0.187 -1.354,0.7 -2.157,1.299 l -0.662,0.493 V 91.291 82.34 h 2.956 2.956 l 0.661,0.618 0.661,0.617 v 5.455 c 0,6.685 -0.246,7.407 -2.946,8.657 -0.509,0.235 -0.877,0.476 -0.819,0.534 0.153,0.153 1.68,-0.659 2.436,-1.295 2.073,-1.744 2.667,-12.226 0.799,-14.094 l -0.704,-0.704 h -3.071 c -1.689,0 -3.135,0.063 -3.213,0.142 m 22.454,4.156 c -0.14,0.14 -0.255,0.35 -0.255,0.466 0,0.116 0.12,0.046 0.268,-0.156 0.244,-0.334 0.813,-0.361 6.575,-0.306 3.47,0.033 6.264,-0.012 6.209,-0.1 -0.176,-0.285 -12.509,-0.193 -12.797,0.096 m 55.841,-0.096 c -0.055,0.088 0.73,0.134 1.743,0.102 3.249,-0.1 3.614,-0.186 0.95,-0.225 -1.427,-0.02 -2.638,0.035 -2.693,0.123 m -0.422,0.62 c -0.078,0.078 -0.134,0.39 -0.124,0.692 0.018,0.54 0.022,0.538 0.206,-0.078 0.193,-0.648 0.165,-0.861 -0.082,-0.614 m 8.844,0.519 c 0.319,0.238 0.83,0.738 1.134,1.11 0.304,0.372 0.453,0.474 0.331,0.227 -0.234,-0.475 -1.636,-1.789 -1.895,-1.778 -0.083,0.004 0.11,0.202 0.43,0.441 m -96.646,0.574 c 0,0.921 2.764,3.47 3.724,3.434 0.117,-0.004 -0.22,-0.233 -0.747,-0.508 -1.173,-0.611 -1.972,-1.386 -2.435,-2.361 -0.336,-0.709 -0.542,-0.923 -0.542,-0.565 m 31.835,0.157 c -0.073,0.19 -0.123,0.553 -0.111,0.807 0.014,0.291 0.086,0.188 0.197,-0.282 0.186,-0.791 0.135,-1.101 -0.086,-0.525 m -25.853,0.264 c -0.014,0.29 -0.217,0.563 -0.503,0.678 -0.324,0.131 -0.367,0.197 -0.132,0.206 0.468,0.018 0.881,-0.518 0.759,-0.987 -0.077,-0.296 -0.104,-0.273 -0.124,0.103 m 38.937,-0.13 c -0.014,0.195 -0.08,0.53 -0.148,0.744 -0.116,0.37 -0.109,0.37 0.121,0.011 0.134,-0.208 0.2,-0.544 0.147,-0.745 -0.086,-0.329 -0.098,-0.33 -0.12,-0.01 m 42.452,0.647 c -0.072,0.268 -0.123,0.679 -0.112,0.913 0.01,0.234 0.106,0.052 0.213,-0.405 0.207,-0.884 0.119,-1.329 -0.101,-0.508 m 5.843,1.089 c 0.305,0.137 0.736,0.381 0.957,0.542 0.222,0.161 0.135,0.041 -0.193,-0.266 -0.329,-0.307 -0.759,-0.551 -0.958,-0.541 -0.243,0.011 -0.181,0.097 0.194,0.265 m -40.607,0.575 c -0.679,0.273 -0.596,0.434 0.106,0.207 0.322,-0.104 0.777,-0.231 1.011,-0.283 0.334,-0.074 0.311,-0.097 -0.107,-0.105 -0.292,-0.006 -0.747,0.075 -1.01,0.181 m 2.255,-0.066 c 0.462,0.087 0.491,0.172 0.384,1.088 l -0.116,0.993 0.223,-0.801 c 0.278,-1.001 0.12,-1.442 -0.506,-1.404 l -0.485,0.028 0.5,0.096 m 9.287,-0.02 c 1.142,0.311 2.054,0.453 1.888,0.293 -0.102,-0.098 -0.664,-0.23 -1.249,-0.294 -0.586,-0.063 -0.873,-0.063 -0.639,10e-4 m 42.766,-0.008 c 0.234,0.062 0.711,0.205 1.059,0.318 0.448,0.146 0.567,0.14 0.407,-0.02 -0.124,-0.124 -0.601,-0.268 -1.059,-0.318 -0.458,-0.051 -0.641,-0.042 -0.407,0.02 m -71.276,0.726 c -0.081,0.367 -0.099,0.716 -0.041,0.775 0.059,0.058 0.173,-0.195 0.253,-0.563 0.081,-0.367 0.099,-0.716 0.041,-0.775 -0.059,-0.058 -0.173,0.195 -0.253,0.563 m 12.819,-0.484 1.33,0.078 v 1.054 c 0,1.247 0.115,1.277 0.947,0.24 l 0.628,-0.782 -0.668,0.612 -0.668,0.612 -0.066,-0.931 -0.067,-0.931 -1.383,-0.015 -1.383,-0.014 1.33,0.077 m 12.524,0.02 c -0.06,0.095 0.174,0.132 0.519,0.082 0.345,-0.051 0.627,-0.129 0.627,-0.174 0,-0.163 -1.041,-0.079 -1.146,0.092 m 30.111,0.18 c -0.016,0.254 -0.084,0.637 -0.151,0.851 -0.116,0.369 -0.11,0.37 0.12,0.012 0.134,-0.209 0.202,-0.592 0.151,-0.851 -0.091,-0.473 -0.091,-0.473 -0.12,-0.012 m 21.007,-0.196 1.569,0.074 -0.116,0.894 c -0.111,0.856 -0.106,0.865 0.108,0.215 0.385,-1.17 0.17,-1.347 -1.58,-1.299 l -1.549,0.042 1.568,0.074 m 3.303,0.142 c -0.063,0.166 -0.075,0.573 -0.025,0.905 0.075,0.497 0.096,0.461 0.122,-0.21 l 0.032,-0.813 1.895,0.068 c 1.043,0.038 1.851,-0.003 1.796,-0.091 -0.195,-0.314 -3.695,-0.184 -3.82,0.141 m 11.479,-0.142 c 1.873,0.063 2.079,0.108 1.955,0.434 -0.106,0.278 -0.079,0.306 0.111,0.117 0.532,-0.528 -0.04,-0.71 -2.099,-0.665 l -2.061,0.044 2.094,0.07 m -112.108,0.746 -0.625,0.691 0.692,-0.625 c 0.38,-0.344 0.691,-0.655 0.691,-0.691 0,-0.165 -0.175,-0.02 -0.758,0.625 m 88.54,-0.155 c -0.226,0.17 -0.369,0.35 -0.319,0.4 0.05,0.05 0.316,-0.093 0.593,-0.317 0.582,-0.472 0.337,-0.546 -0.274,-0.083 m -16.479,0.208 c -0.018,0.234 -0.081,0.665 -0.142,0.957 l -0.109,0.532 0.228,-0.522 c 0.125,-0.287 0.189,-0.718 0.141,-0.957 -0.084,-0.425 -0.087,-0.425 -0.118,-0.01 m 7.683,0.319 c 0,0.409 0.044,0.577 0.097,0.372 0.054,-0.205 0.054,-0.54 0,-0.744 -0.053,-0.205 -0.097,-0.038 -0.097,0.372 M 141.17,91.702 c 0.073,0.117 0.224,0.213 0.336,0.213 0.113,0 0.586,0.24 1.051,0.534 0.466,0.294 0.847,0.462 0.847,0.373 0,-0.161 -1.955,-1.333 -2.225,-1.333 -0.077,0 -0.081,0.096 -0.009,0.213 m 42.367,0.115 c -0.073,0.19 -0.124,0.553 -0.114,0.807 0.014,0.327 0.08,0.253 0.225,-0.254 0.212,-0.736 0.125,-1.169 -0.111,-0.553 m 26.709,0.332 c -0.392,0.356 -0.679,0.681 -0.638,0.721 0.041,0.041 0.432,-0.253 0.868,-0.653 0.437,-0.4 0.724,-0.725 0.638,-0.721 -0.086,0.003 -0.477,0.297 -0.868,0.653 m -73.388,5.989 0.05,6.011 0.06,-5.895 0.06,-5.895 0.741,0.437 c 0.408,0.241 0.742,0.388 0.742,0.327 0,-0.127 -1.367,-0.995 -1.568,-0.995 -0.074,0 -0.112,2.704 -0.085,6.01 m 39.647,-5.463 c -0.079,0.312 -0.102,0.608 -0.052,0.658 0.051,0.05 0.156,-0.164 0.234,-0.476 0.078,-0.312 0.101,-0.608 0.051,-0.658 -0.05,-0.05 -0.155,0.164 -0.233,0.476 m 62.602,0.038 c -0.541,0.578 -1.345,1.968 -1.139,1.968 0.058,0 0.263,-0.311 0.455,-0.692 0.192,-0.38 0.595,-0.954 0.896,-1.276 0.302,-0.322 0.5,-0.585 0.441,-0.585 -0.058,0 -0.352,0.263 -0.653,0.585 m 17.435,1.01 c 0.062,0.82 0.148,1.53 0.19,1.578 0.148,0.172 0.032,-2.009 -0.135,-2.535 -0.098,-0.309 -0.121,0.092 -0.055,0.957 M 148.989,92.7 c 0.205,0.053 0.54,0.053 0.745,0 0.205,-0.054 0.037,-0.097 -0.372,-0.097 -0.41,0 -0.577,0.043 -0.373,0.097 m 70.6,0.213 c 0.048,0.552 0.381,1.021 0.396,0.557 0.008,-0.256 -0.081,-0.525 -0.198,-0.598 -0.117,-0.072 -0.206,-0.054 -0.198,0.041 m 30.653,0.208 c -0.016,0.254 -0.084,0.637 -0.152,0.851 -0.116,0.369 -0.109,0.37 0.121,0.011 0.133,-0.208 0.201,-0.591 0.151,-0.851 -0.091,-0.472 -0.091,-0.472 -0.12,-0.011 m -77.972,0 c -0.079,0.078 -0.134,0.389 -0.124,0.691 0.018,0.54 0.022,0.538 0.206,-0.078 0.193,-0.647 0.165,-0.86 -0.082,-0.613 m 55.298,0.405 c -0.078,0.312 -0.094,0.615 -0.036,0.673 0.059,0.059 0.171,-0.149 0.249,-0.46 0.078,-0.312 0.095,-0.615 0.036,-0.674 -0.058,-0.058 -0.17,0.149 -0.249,0.461 m -88.845,-0.233 c 0,0.155 1.975,0.974 2.084,0.864 0.057,-0.056 -0.15,-0.201 -0.458,-0.321 -0.309,-0.121 -0.801,-0.312 -1.094,-0.426 -0.292,-0.115 -0.532,-0.167 -0.532,-0.117 m 60.65,0.313 c -0.201,0.127 0.003,0.153 0.583,0.075 0.594,-0.08 1.016,-0.022 1.265,0.174 0.34,0.267 0.348,0.259 0.083,-0.078 -0.314,-0.4 -1.415,-0.498 -1.931,-0.171 m 15.148,-0.055 c 0.205,0.053 0.54,0.053 0.745,0 0.205,-0.054 0.037,-0.097 -0.372,-0.097 -0.41,0 -0.578,0.043 -0.373,0.097 m -22.802,0.332 c -0.012,0.272 -0.204,0.376 -0.708,0.386 -0.664,0.013 -0.671,0.022 -0.175,0.22 0.587,0.234 1.213,-0.192 1.014,-0.692 -0.078,-0.196 -0.12,-0.169 -0.131,0.086 m 31.594,0.281 c -0.078,0.312 -0.101,0.608 -0.051,0.658 0.05,0.05 0.155,-0.164 0.233,-0.475 0.079,-0.312 0.102,-0.608 0.052,-0.659 -0.051,-0.05 -0.156,0.164 -0.234,0.476 m -25.031,0.234 -0.516,0.568 0.578,-0.409 c 0.319,-0.224 0.582,-0.48 0.585,-0.568 0.011,-0.262 -0.105,-0.188 -0.647,0.409 m 17.594,-0.26 c 0.231,0.601 -0.132,1.401 -0.829,1.825 -0.377,0.23 -0.558,0.419 -0.403,0.419 0.856,0.003 1.959,-2.047 1.316,-2.444 -0.121,-0.075 -0.156,0.011 -0.084,0.2 m 26.77,0.383 -0.625,0.692 0.744,-0.639 c 0.409,-0.351 0.784,-0.662 0.833,-0.691 0.05,-0.029 -0.004,-0.053 -0.118,-0.053 -0.115,0 -0.49,0.311 -0.834,0.691 m 10.135,0.071 c 0.008,0.459 0.096,1.025 0.196,1.259 0.112,0.265 0.135,-0.016 0.061,-0.745 -0.142,-1.401 -0.278,-1.672 -0.257,-0.514 m -63.419,-0.124 c -0.439,0.14 -0.457,0.174 -0.107,0.188 0.234,0.01 0.569,-0.074 0.745,-0.188 0.373,-0.241 0.114,-0.241 -0.638,0 m -46.744,1.121 c 0.537,0.5 1.17,1.338 1.408,1.862 0.238,0.524 0.435,0.83 0.437,0.679 0.014,-0.782 -2.063,-3.449 -2.685,-3.449 -0.074,0 0.304,0.409 0.84,0.908 m 33.366,-0.376 c -0.018,0.234 -0.082,0.665 -0.142,0.957 l -0.109,0.532 0.228,-0.522 c 0.125,-0.287 0.189,-0.718 0.141,-0.957 -0.084,-0.425 -0.087,-0.425 -0.118,-0.01 m 43.832,-0.071 c -0.016,0.195 -0.091,0.53 -0.166,0.745 -0.107,0.301 -0.078,0.335 0.124,0.148 0.144,-0.133 0.219,-0.468 0.167,-0.745 -0.053,-0.276 -0.109,-0.343 -0.125,-0.148 m 7.712,-0.077 c 0.102,0.165 1.621,0.082 1.621,-0.088 0,-0.046 -0.389,-0.083 -0.864,-0.083 -0.475,0 -0.816,0.077 -0.757,0.171 m 22.284,0.077 c -0.014,0.195 -0.08,0.53 -0.147,0.745 -0.116,0.369 -0.11,0.37 0.12,0.011 0.134,-0.209 0.2,-0.544 0.148,-0.745 -0.087,-0.33 -0.099,-0.331 -0.121,-0.011 m 13.379,1.028 c -0.238,0.468 -0.386,0.851 -0.327,0.851 0.058,0 0.301,-0.383 0.54,-0.851 0.239,-0.468 0.387,-0.851 0.328,-0.851 -0.058,0 -0.302,0.383 -0.541,0.851 m -91.463,-0.319 c -0.017,0.234 -0.081,0.665 -0.141,0.958 l -0.11,0.531 0.228,-0.522 c 0.126,-0.287 0.189,-0.717 0.142,-0.957 -0.085,-0.424 -0.088,-0.424 -0.119,-0.01 m 32.908,0.874 c -0.317,0.514 -0.534,0.935 -0.482,0.935 0.151,0 1.237,-1.702 1.143,-1.791 -0.046,-0.044 -0.344,0.341 -0.661,0.856 m 18.263,-0.653 c -0.073,0.19 -0.125,0.506 -0.115,0.701 0.01,0.195 0.103,0.072 0.206,-0.273 0.201,-0.671 0.13,-1.004 -0.091,-0.428 m 10.824,0.453 c -0.468,0.42 -0.659,0.664 -0.425,0.543 0.394,-0.204 1.569,-1.334 1.367,-1.314 -0.05,0.004 -0.474,0.352 -0.942,0.771 M 197.15,96.294 c -0.071,0.185 -0.129,0.377 -0.129,0.426 0,0.164 1.804,0.061 2.234,-0.128 0.272,-0.12 -0.019,-0.142 -0.802,-0.062 -1.08,0.11 -1.212,0.083 -1.095,-0.224 0.074,-0.192 0.086,-0.349 0.028,-0.349 -0.059,0 -0.165,0.152 -0.236,0.337 m -14.691,0.633 c -0.08,0.427 -0.103,0.819 -0.051,0.871 0.052,0.052 0.16,-0.255 0.24,-0.682 0.08,-0.427 0.103,-0.819 0.051,-0.871 -0.052,-0.052 -0.16,0.255 -0.24,0.682 m 30.094,-0.331 -0.957,0.149 0.851,0.017 c 0.468,0.009 1.042,-0.066 1.276,-0.166 0.493,-0.212 0.193,-0.212 -1.17,0 m 6.061,0.721 c -0.469,0.481 -1.044,0.996 -1.276,1.143 -0.233,0.148 -0.13,0.131 0.228,-0.037 0.67,-0.316 2.008,-1.561 2.008,-1.868 0,-0.227 0.022,-0.244 -0.96,0.762 m 26.833,0.151 c -0.078,0.488 -0.1,0.928 -0.05,0.979 0.051,0.051 0.16,-0.304 0.241,-0.787 0.082,-0.484 0.104,-0.925 0.05,-0.979 -0.055,-0.055 -0.163,0.299 -0.241,0.787 m -69.886,-0.305 c -0.016,0.254 -0.084,0.637 -0.152,0.852 -0.115,0.368 -0.109,0.369 0.121,0.011 0.133,-0.208 0.202,-0.591 0.151,-0.851 -0.091,-0.472 -0.091,-0.472 -0.12,-0.012 m 73.724,0.329 c -0.072,0.268 -0.122,0.678 -0.112,0.912 0.01,0.234 0.106,0.052 0.213,-0.404 0.208,-0.884 0.119,-1.33 -0.101,-0.508 m 3.921,0.079 c 0.009,0.341 0.1,0.812 0.204,1.046 0.126,0.284 0.146,0.107 0.062,-0.532 -0.149,-1.127 -0.287,-1.394 -0.266,-0.514 m -46.051,0.142 c -0.181,0.675 -0.159,3.62 0.029,3.915 0.086,0.134 0.156,-0.799 0.156,-2.075 0,-2.536 0.001,-2.532 -0.185,-1.84 m 49.904,1.051 c -0.037,1.589 0.214,2.35 0.462,1.402 0.067,-0.256 0.078,-0.511 0.024,-0.565 -0.054,-0.053 -0.115,0.038 -0.136,0.204 -0.02,0.166 -0.099,-0.369 -0.175,-1.188 l -0.138,-1.489 -0.037,1.636 m -34.582,-0.847 c -0.072,0.268 -0.122,0.679 -0.112,0.913 0.01,0.234 0.106,0.052 0.213,-0.405 0.207,-0.884 0.119,-1.329 -0.101,-0.508 m -51.292,0.502 c -0.078,0.312 -0.101,0.608 -0.051,0.659 0.05,0.05 0.156,-0.164 0.234,-0.476 0.078,-0.312 0.101,-0.608 0.051,-0.658 -0.05,-0.05 -0.155,0.164 -0.234,0.475 m 31.687,-0.107 c -0.351,0.225 -0.542,0.409 -0.425,0.409 0.117,0 0.5,-0.191 0.851,-0.423 0.351,-0.233 0.542,-0.416 0.425,-0.409 -0.117,0.008 -0.5,0.198 -0.851,0.423 m 37.975,0.561 c -0.056,0.608 -0.024,1.028 0.071,0.933 0.095,-0.096 0.141,-0.594 0.102,-1.107 l -0.07,-0.933 -0.103,1.107 m -11.273,-0.575 -0.957,0.149 0.851,0.028 c 0.468,0.016 0.995,-0.064 1.17,-0.177 0.176,-0.114 0.224,-0.193 0.107,-0.178 -0.117,0.016 -0.644,0.096 -1.171,0.178 m -85.018,3.83 c 0,2.048 0.032,2.885 0.071,1.861 0.039,-1.024 0.039,-2.699 0,-3.723 -0.039,-1.024 -0.071,-0.186 -0.071,1.862 m 37.492,-3.29 c -0.073,0.19 -0.125,0.505 -0.115,0.701 0.01,0.195 0.103,0.072 0.206,-0.273 0.2,-0.672 0.13,-1.004 -0.091,-0.428 m 44.477,-0.186 c -0.263,0.264 -0.15,0.555 0.127,0.326 0.147,-0.123 0.65,-0.262 1.117,-0.309 l 0.848,-0.087 -0.975,-0.036 c -0.537,-0.019 -1.039,0.028 -1.117,0.106 M 152.872,99.8 c -0.819,0.458 -1.393,0.831 -1.276,0.83 0.117,-10e-4 0.811,-0.324 1.542,-0.718 l 1.33,-0.717 v 2.558 2.558 l -0.798,0.767 c -0.467,0.449 -0.58,0.627 -0.273,0.43 1.188,-0.764 1.385,-1.306 1.466,-4.034 0.088,-2.955 0.174,-2.882 -1.991,-1.674 m 91.756,0.253 c -0.319,0.598 -0.549,1.118 -0.511,1.156 0.038,0.039 0.334,-0.416 0.657,-1.01 0.323,-0.593 0.553,-1.113 0.51,-1.156 -0.042,-0.042 -0.338,0.412 -0.656,1.01 m -46.33,-0.706 -1.596,0.121 -0.069,0.719 c -0.037,0.395 0.013,0.799 0.112,0.898 0.099,0.099 0.144,-0.2 0.099,-0.665 l -0.08,-0.846 1.458,-0.014 c 0.803,-0.009 1.65,-0.098 1.884,-0.198 0.236,-0.102 0.284,-0.173 0.107,-0.16 -0.176,0.013 -1.037,0.078 -1.915,0.145 m 14.574,0.015 -1.489,0.137 1.489,0.035 c 0.819,0.019 1.633,-0.059 1.809,-0.172 0.284,-0.184 0.284,-0.203 0,-0.172 -0.176,0.019 -0.99,0.096 -1.809,0.172 m 23.785,0.744 c 10e-4,0.585 0.043,0.8 0.091,0.476 0.049,-0.323 0.048,-0.802 -0.002,-1.064 -0.051,-0.261 -0.091,0.003 -0.089,0.588 M 192.39,100 c 0,0.41 0.044,0.577 0.097,0.372 0.054,-0.204 0.054,-0.54 0,-0.744 -0.053,-0.205 -0.097,-0.038 -0.097,0.372 m -6.539,0.213 c -0.081,0.368 -0.102,0.713 -0.048,0.767 0.054,0.054 0.159,-0.207 0.234,-0.581 0.178,-0.887 0.006,-1.059 -0.186,-0.186 m 40.344,-0.177 c -0.014,0.195 -0.08,0.53 -0.147,0.744 -0.116,0.37 -0.11,0.37 0.12,0.011 0.134,-0.208 0.2,-0.543 0.148,-0.744 -0.087,-0.33 -0.099,-0.331 -0.121,-0.011 m 22.557,0.106 c -0.016,0.254 -0.084,0.637 -0.151,0.851 -0.116,0.369 -0.11,0.37 0.12,0.012 0.134,-0.209 0.202,-0.592 0.152,-0.852 -0.092,-0.472 -0.092,-0.472 -0.121,-0.011 m -77.981,0.185 c -0.073,0.191 -0.124,0.506 -0.114,0.701 0.01,0.195 0.102,0.073 0.205,-0.273 0.201,-0.671 0.13,-1.004 -0.091,-0.428 m 82.896,0.099 c 0,0.292 0.073,0.819 0.163,1.17 0.145,0.569 0.162,0.581 0.162,0.106 0,-0.292 -0.073,-0.819 -0.162,-1.17 -0.145,-0.569 -0.163,-0.581 -0.163,-0.106 m -12.794,0.225 c -0.012,0.299 0.129,0.73 0.313,0.957 0.184,0.227 0.265,0.278 0.179,0.113 -0.086,-0.166 -0.227,-0.596 -0.313,-0.958 -0.145,-0.604 -0.159,-0.613 -0.179,-0.112 m -59.251,0.102 c -0.073,0.19 -0.124,0.553 -0.113,0.807 0.013,0.327 0.079,0.253 0.224,-0.254 0.212,-0.736 0.125,-1.169 -0.111,-0.553 m -31.206,0.303 c -1.394,0.737 -3.501,3.164 -3.097,3.568 0.064,0.064 0.212,-0.136 0.329,-0.444 0.309,-0.814 1.885,-2.448 2.821,-2.926 0.444,-0.226 0.808,-0.458 0.808,-0.514 0,-0.138 -0.005,-0.137 -0.861,0.316 m 71.419,0.122 c -0.073,0.191 -0.125,0.506 -0.115,0.701 0.01,0.195 0.103,0.073 0.206,-0.273 0.201,-0.671 0.13,-1.003 -0.091,-0.428 m -47.231,0.569 c -0.071,0.268 -0.122,0.679 -0.112,0.913 0.011,0.234 0.106,0.052 0.214,-0.405 0.207,-0.884 0.118,-1.329 -0.102,-0.508 m 27.736,-0.248 c -0.235,0.159 -0.16,0.179 0.285,0.075 l 0.604,-0.14 -0.072,1.497 c -0.04,0.824 0,1.453 0.088,1.399 0.087,-0.055 0.159,-0.764 0.159,-1.577 0,-1.549 -0.228,-1.819 -1.064,-1.254 m 14.681,0.008 c -0.247,0.173 -0.207,0.191 0.178,0.083 0.492,-0.139 0.496,-0.125 0.426,1.374 -0.059,1.253 -0.026,1.452 0.194,1.15 0.277,-0.381 0.361,-1.917 0.137,-2.501 -0.149,-0.388 -0.479,-0.426 -0.935,-0.106 m -4.799,0.503 c 0.227,0.182 0.562,0.323 0.744,0.314 0.287,-0.015 0.288,-0.033 0.013,-0.136 -0.176,-0.065 -0.511,-0.206 -0.745,-0.314 -0.419,-0.192 -0.419,-0.19 -0.012,0.136 m -41.877,0.232 c -0.073,0.19 -0.122,0.554 -0.11,0.807 0.013,0.292 0.086,0.188 0.196,-0.282 0.186,-0.79 0.135,-1.1 -0.086,-0.525 M 200,102.128 c -0.715,0.229 0.057,0.229 0.957,0 0.574,-0.146 0.585,-0.163 0.107,-0.167 -0.293,-0.002 -0.771,0.073 -1.064,0.167 m 14.468,0 c -0.715,0.229 0.058,0.229 0.958,0 0.573,-0.146 0.584,-0.163 0.106,-0.167 -0.293,-0.002 -0.771,0.073 -1.064,0.167 m 11.17,0.425 c -0.08,0.368 -0.102,0.713 -0.048,0.767 0.054,0.055 0.16,-0.207 0.234,-0.581 0.178,-0.887 0.006,-1.058 -0.186,-0.186 m 16.33,-0.491 c 0.205,0.053 0.54,0.053 0.745,0 0.205,-0.054 0.037,-0.098 -0.373,-0.098 -0.409,0 -0.577,0.044 -0.372,0.098 m -56.617,0.527 c -0.018,0.312 -0.087,0.743 -0.154,0.957 -0.116,0.369 -0.109,0.369 0.12,0.012 0.133,-0.207 0.202,-0.638 0.154,-0.957 l -0.088,-0.58 -0.032,0.568 m 62.856,0.086 c -0.079,0.312 -0.102,0.608 -0.051,0.658 0.05,0.05 0.155,-0.164 0.233,-0.476 0.078,-0.312 0.101,-0.608 0.051,-0.658 -0.05,-0.05 -0.155,0.164 -0.233,0.476 m -26.798,0.418 c -0.073,0.19 -0.123,0.554 -0.111,0.807 0.014,0.292 0.086,0.188 0.197,-0.282 0.186,-0.79 0.135,-1.1 -0.086,-0.525 m -13.537,0.165 c 0,0.037 0.312,0.348 0.692,0.692 l 0.691,0.624 -0.625,-0.691 c -0.582,-0.645 -0.758,-0.789 -0.758,-0.625 m 36.257,0.834 c -0.309,0.362 -0.319,0.408 -0.043,0.195 0.2,-0.155 0.463,-0.219 0.586,-0.144 0.122,0.076 0.222,-0.012 0.222,-0.194 0,-0.467 -0.291,-0.413 -0.765,0.143 m -49.874,0.102 c 0,0.186 0.851,0.773 0.958,0.661 0.035,-0.037 -0.166,-0.24 -0.447,-0.45 -0.281,-0.21 -0.511,-0.305 -0.511,-0.211 m 60.032,0.338 c -0.017,0.327 -0.178,0.878 -0.356,1.223 -0.179,0.345 -0.277,0.628 -0.219,0.628 0.268,0 0.773,-1.364 0.694,-1.876 l -0.087,-0.571 -0.032,0.596 m -117.266,-0.137 c 0,0.121 0.192,0.393 0.426,0.605 0.234,0.212 0.425,0.318 0.425,0.237 0,-0.082 -0.191,-0.354 -0.425,-0.605 -0.234,-0.251 -0.426,-0.358 -0.426,-0.237 m 64.788,0.4 c -0.533,0.256 -0.55,0.286 -0.107,0.177 0.603,-0.147 1.281,-0.493 0.958,-0.488 -0.117,0.002 -0.5,0.142 -0.851,0.311 m -5.137,0.574 c 0.293,0.189 2.544,0.169 3.434,-0.03 0.356,-0.079 -0.317,-0.139 -1.519,-0.134 -1.187,0.004 -2.048,0.078 -1.915,0.164 m 14.468,0 c 0.293,0.189 2.544,0.169 3.434,-0.03 0.356,-0.079 -0.317,-0.139 -1.519,-0.134 -1.187,0.004 -2.048,0.078 -1.915,0.164 m 28.508,0 c 0.135,0.086 0.676,0.156 1.203,0.156 0.527,0 1.068,-0.07 1.203,-0.156 0.135,-0.086 -0.406,-0.156 -1.203,-0.156 -0.797,0 -1.338,0.07 -1.203,0.156 m 13.241,1.819 -0.408,0.578 0.568,-0.516 c 0.597,-0.542 0.67,-0.659 0.408,-0.648 -0.087,0.004 -0.343,0.267 -0.568,0.586 m 3.817,0.95 c -0.321,0.498 -0.932,1.223 -1.358,1.612 l -0.774,0.708 0.783,-0.561 c 0.43,-0.309 0.932,-0.795 1.117,-1.08 0.184,-0.286 0.489,-0.758 0.678,-1.051 0.189,-0.293 0.298,-0.532 0.241,-0.532 -0.056,0 -0.365,0.407 -0.687,0.904 m -6.068,-0.282 -1.383,0.123 -0.063,1.455 c -0.071,1.631 0.141,2.065 0.994,2.036 0.522,-0.018 0.513,-0.032 -0.133,-0.219 l -0.691,-0.199 v -1.484 -1.483 l 1.223,-0.003 c 0.673,-0.002 1.367,-0.096 1.543,-0.21 0.175,-0.113 0.223,-0.191 0.106,-0.172 -0.117,0.018 -0.835,0.088 -1.596,0.156 m 1.277,3.421 c -0.421,0.134 -0.443,0.17 -0.106,0.17 0.234,0 0.664,-0.077 0.957,-0.17 0.421,-0.135 0.443,-0.171 0.106,-0.171 -0.234,0 -0.665,0.077 -0.957,0.171"
       stroke="none"
       fill="#688985"
       fill-rule="evenodd" />
  </g>
</svg>
